<?xml version="1.0" encoding="UTF-8"?>
<svg id="Layer_1" data-name="Layer 1" xmlns="http://www.w3.org/2000/svg" viewBox="0 0 1980 1936.92">
  <defs>
    <style>
      .cls-1, .cls-2, .cls-3, .cls-4, .cls-5, .cls-6, .cls-7, .cls-8, .cls-9 {
        fill-rule: evenodd;
      }

      .cls-1, .cls-10 {
        fill: #fedd6b;
      }

      .cls-11 {
        fill: #f18b27;
      }

      .cls-12 {
        fill: #c25d0b;
      }

      .cls-2, .cls-13 {
        fill: #ac3537;
      }

      .cls-3 {
        fill: #af5023;
      }

      .cls-4 {
        fill: #fff;
      }

      .cls-5 {
        fill: #7a994c;
      }

      .cls-6 {
        fill: #303352;
      }

      .cls-7 {
        fill: #e2c59b;
      }

      .cls-14 {
        fill: #e09e10;
      }

      .cls-8 {
        fill: #f2b326;
      }

      .cls-15 {
        fill: #feb668;
      }

      .cls-9 {
        fill: #8c2426;
      }
    </style>
  </defs>
  <g id="_1230049076192" data-name=" 1230049076192">
    <path class="cls-6" d="m509.38,1884.16c3.83,39.11,13.99,65.48-57.37,46.41-138.79-37.08-183.26-265.99-10.32-348.08,60.06-28.51,133.97-40.33,197.56-45.27,427.85-33.23,1218.53,83.55,1300.11-237.54-85.61,93.55-210.77,67.86-169.88-66.56-29.4,54.14-66.86,144.24-139.7,154.57-32.36,4.59-62.6-7.25-79.78-35.86-5.99,7.73-12.39,15.08-19.26,21.96-21.24,21.65-49.16,34.93-82.29,39.63-41.96,5.96-82.77-12.62-107.73-35.6-110.07,134.82-157.84,11.31-100.37-43.05,18.64-17.63,46.37-27.49,77.07-23.89,34.75-37.12,80.14-93.54,100.29-138.94-42.22,25.44-102.84,36.39-149.3,19.53-32.51,94.37-52.56,254.96-188.91,274.3-41.97,5.96-82.78-12.62-107.74-35.6-110.08,134.82-157.84,11.31-100.37-43.05,18.64-17.64,46.37-27.49,77.07-23.89,34.75-37.12,80.14-93.55,100.29-138.95-42.22,25.44-102.83,36.39-149.3,19.53-22.89,66.44-69.72,257.39-159.79,270.17-25.43,3.61-47.75-2.54-65.56-19.37-51.2-48.37-31.05-105.94-13.39-164.38,17.64-55.62,36.15-111.2,55.69-166.3,19.39,1.17,44.39,10.1,62.07,24.01,48.47,38.15-6.87,126.94-22.52,178.38-18.53,60.93-5.64,91,44.07,22.64,35.09-48.25,50.01-107.32,70.99-161.91-37.75-36.04-27.04-74.38-3.82-92.98,25.09-20.1,64.66-18.02,69.61,11.47.59,3.5.32,6.41-1.3,10.22,26.51,16.56,79.81,19.5,110.33,15.17,11.04-1.57,21.85-4.54,32.54-8.2,10.76-30.2,38.12-51.28,64.63-55.04,16.93-2.4,44.48,5.88,56.52,19.23-20.51,107.28-106.78,177.68-183.24,249.62,156.65,33.03,183.41-97.03,223.68-201.83-37.75-36.04-27.04-74.38-3.83-92.98,25.09-20.1,64.66-18.02,69.61,11.48.59,3.5.32,6.4-1.3,10.22,26.52,16.56,79.81,19.5,110.33,15.17,11.04-1.57,21.85-4.53,32.54-8.21,10.76-30.2,38.12-51.28,64.63-55.04,16.93-2.4,44.48,5.88,56.52,19.22-20.51,107.28-106.78,177.68-183.24,249.62,25.14,5.3,64.61,2.3,90.22-1.34,22.86-3.24,42.47-18.87,60.28-41.5,1.63-27.13,9.73-56.08,24.58-86.65,36.77-73.28,112.03-164.26,205.26-177.49,33.13-4.7,45.19,10.79,48.37,29.69,2.35,14-.57,29.47-5.33,38.74,33.96.2,55.5,15.78,59.14,37.48,1.17,7-2.64,21.87-10.79,43.81-52.35,152.96,49.37,116.47,63.35,29.66,4.98-31.04,19.68-27.05,31.81-12.23,14.73,17.99,22.65,50.3,26.05,82.27,8.27,77.7-12.35,139.62-51.46,189.08-150.38,190.16-559.02,257.41-904.85,271.92-301.32,12.64-525.93,19.52-512.49,156.52h0Zm-215.2-339.15c111.2,36.2,251.86-47.36,305.74-135.91,104.22-171.3,5.6-369.72-251.46-333.25-382.5,54.28-441.72,357.23-218.8,339.2,26.25-2.13,20.42-12.1,13.42-35.22-36.22-119.59,89.48-236.03,208.94-252.98,274.2-38.91,201.86,344.78-42.28,360.48,16.66-66.08,39.47-244.32,115.04-271.5,8.86-3.19,25.5-12.63,8.93-22.12-64.81-37.12-131.1-3.98-168.91,45.38-52.79,68.91-75.32,224.44-108.84,316.93-52.72,145.48-167.28,119.41-143.29,155.66,29.12,43.99,90.07,57.12,142.41,43.4,94.4-24.75,117.11-134.97,139.1-210.06h0Zm1367.44-338.87c13.83-38.97,56.6-140.63,106.15-147.66,7.05-.28,11.61,3.37,13.13,12.47,2.71,16.1-2.42,41.91-14.74,76.63-12.97,35.53-29.6,67.99-48.9,98.68-60.54,96.27-85.89,47.71-55.64-40.13h0Z"/>
    <g>
      <g>
        <path class="cls-13" d="m1289.95,0c-46.46,147.8,122.72,159.92,200.32,264.28-.21-53.79,24.16-116.89,85.69-153.12-40.98,86.89-39.42,162.95,67.17,226.62,140.68,84.04,140.19,184.95,142.65,246.43,4.18,104.51,66.85,57.59,63.36-42.78,48.59,125.6-46.87,257.61-144.87,323.84,36.75-59.71,53.77-150.33,32.23-219.02,0,0-2.14,54.21-82.44,83.55,77.5-174.74,31.19-245.45-28.32-320.78,2.9,74.55-11,116.74-55.23,139.9-12.53-204-198.65-142.37-226.46-318.33-36.42,41.88-28.97,74.71-22.85,101.03,11.42,49.13-39.7,69.48-70.13,28.81-22.28-29.78-45.84-72.46-116.72-72.32,48.74,58.33,37.98,172.78-3.73,237.49-71.65,111.18-231.33,116.28-238.68-42.85-52.89,80.36-76.83,112.87,15.2,280.02-82.48-22.05-110.88-56.9-110.88-56.9,0,0-11.77,62.65,12.92,125.65-178.2-66.73-123.55-238-123.55-238,0,0,10.22,92.88,56.36,71.5,50.88-23.57-62.96-151.95,131.59-292.78,100.78-72.97,95.89-148.86,47.69-231.76,99.51,47.28,116.02,166.49,84.45,220.25-111.62,190.04,91.89,194.31,100.95,38.98,2.05-35.22-16.59-85.48-36.65-135.55-23.36-58.32-24.4-130.12,61.99-192.17-54.58,164.31,140.69,241,123.86,155.48-30.4-72.46-81.23-159.57,34.09-227.46h0Zm371.53,114.66c-103.89,113.14,54.69,132.89,50.01,229.72,37.05-99.49-57.43-138.15-50.01-229.72Zm-996.87,262.43s66.45,87.08,11.55,166.29c-54.9,79.21-26.02,126.01-26.02,126.01,0,0-59.16-84.34-38.72-151.77,20.44-67.43,64.1-73.49,53.19-140.53h0Z"/>
        <path class="cls-8" d="m1752.05,611.35s-22.34,31.71-58.72,64.94c60.83-231.73-94.72-311.79-94.72-311.79,0,0,22.51,73.07-11.32,150.69-36.17-194.22-208.66-100.61-247.22-321.33,0,0-38.44,79.22-28.42,124.44,10.01,45.22-21.78,90.47-66.09,20.95-44.31-69.52-125.05-65.44-125.05-65.44,0,0,49.79,87.25,32.63,165.07-48.47,219.84-300.56,159.11-237.98-4.11-125.26,71.71-114.76,217.42-29.1,309.46-28.8,1.34-80.3-10.96-100.2-83.63-14.15,52.65-34.18,140.81,23.32,170.93-5.5-30.52-10.17-65.86-5.65-82.79,54.92,25.6,74.79,22.31,142.18,8.07-44.58-35.5-113.44-117.9-64.75-218.81-7.77,106.89,144.51,100.34,214.3,51.05,80.8-57.06,133.38-169.92,84.06-265.26,46.69,17.68,45.66,51.75,74.3,71.4,55.08,37.8,102.48-8.79,92.36-83.71,45.65,157.69,187.16,43.86,218.15,286.35,0,0,59.1-26.63,74.54-107.59,23.48,32.19,30.19,125.51,1.54,255.5,28.35-14.7,60.74-26.75,89.34-52.91,12.32,72.6-4.87,139.89-25.27,172.44,63.78-74.25,80.64-148.31,47.78-253.92h0Z"/>
      </g>
      <g>
        <path class="cls-9" d="m1692.43,940.22c3.37,90.52-114.96,87.48-176.24,88.06-15.99.15-31.28.3-43.34.66-12.67.38-23.48.67-34.3.95-52.28,1.37-104.56,2.74-199.53,9.89-47.28,3.55-92.56,9.16-135.9,14.52-63.72,7.88-123.29,15.25-177.73,14.92-30.85-.19-61.24-1.03-88.06-2.07-26.95-1.04-50.66-2.3-67.63-3.29-37.57-2.19-65.79-5.5-79.07-15.77-16.74-12.95-13.49-31.81,17.44-62.39,9.02-8.92,19.45-19.09,31.28-29.97,11.5-10.58,23.85-21.34,36.56-31.3,15.37-12.04,43.25-34.58,70.4-57.47,19.24-16.22,37.78-32.35,50.48-44.45,16.3-15.52,36.88-29.99,57.13-44.22,23.99-16.86,47.51-33.39,61.45-50.08,6.85-8.21,15.93-19.27,24.68-29.94,20.93-25.5,39.85-48.56,58.21-67.63,39.63-41.18,106.9-95.38,126-110.57-16.87-50.41,16.43-92.54,67.87-89.09,29.53,1.98,53.42,10.71,78.63,23.81,46.59-.54,118.3,81.56,150.77,124.96,15.23,7.66,19.25,14.13,29.59,28.13,17.55,23.77,36.68,55.77,54.9,90.27,25.69,48.65,49.71,102.5,64.98,145.25,11.52,32.26,20.16,63.13,21.41,96.83h0Z"/>
        <path class="cls-11" d="m1541.61,926.66c3.74,16.75-4.92,25.11-19.29,29.09-10.57,2.93-24.44,2.87-37.56,2.57-5.83-.14-11.72-.09-17.85-.04-21.21.17-45.29.36-73.79-6.04-17.53-3.94-37.2,5.33-54.35,13.42-15.25,7.18-28.81,13.58-41.06,11.46-2.24-.39-5.12-.95-7.86-1.48-15.39-2.99-25.21-4.89-62.84,6.25-23.1,6.84-46.19,13.54-67.19,17.99-21.81,4.63-41.9,7.01-58.53,5.02-8.58-1.03-16.37-2.63-23.98-4.19-19.42-3.99-37.55-7.71-61.17,1.12l-1.04.39c-36.03,13.47-50.09,18.73-91.7,14.96-18.6-1.69-32.75,3.48-45.44,8.11-13.95,5.09-26.41,9.64-42.19,6.23-15.98-3.45-47.69-8.17-80.53-5.75-16.81,1.24-33.87,4.36-49.08,10.5,11.66,5.39,34.71,7.64,64.62,9.38,16.75.98,40.25,2.22,67.27,3.27,27.15,1.05,57.49,1.91,87.41,2.09,53.55.32,112.42-6.96,175.38-14.75,43.89-5.43,89.75-11.1,136.81-14.64,95.4-7.18,147.9-8.55,200.39-9.93,11.74-.31,23.49-.62,34.23-.94,14.2-.43,28.62-.57,43.69-.71,48.89-.47,161.12,7.24,158.28-69.07-4.4-118.25-149.38-89.27-132.62-14.29h0Zm86.16,54.4c21.67-17.58,21.28-67.78,3.34-87.54,28.32,14.46,40.23,71.1-3.34,87.54Z"/>
        <path class="cls-12" d="m706.16,1036.26c11.66,5.39,34.71,7.64,64.62,9.38,16.75.98,40.25,2.22,67.27,3.27,27.15,1.05,57.49,1.91,87.41,2.09,53.55.32,112.42-6.96,175.38-14.75,43.89-5.43,89.75-11.1,136.81-14.64,95.4-7.18,147.9-8.55,200.39-9.93,11.74-.31,23.49-.62,34.23-.94,14.2-.43,28.62-.57,43.69-.71,48.89-.47,161.12,7.24,158.28-69.07-1.66-44.67-23.39-68.31-48.87-76.42,15.06,12.41,22,28.82,22.77,45.57,13.82,22.77,12.76,58.47-20.36,70.97,11.09-9,16.4-26.54,16.54-44.17-4.01,12.16-10.95,23.4-19.97,32.13-12.12,11.74-42.79,13.26-51.81,15.39-21.71,5.13-68.64,1.87-88.29-.68-55.31-7.15-84.79,2.35-126.19,7.18-15.32,1.79-39,8.23-56.97,2.47-28.45-9.12-58.34,7.82-111.12,20.14-52.78,12.32-85.27,1.55-125.8,3.79-19.03,1.05-41.3,6.6-65.65,10.57-18.76,3.06-52.74,5.61-82.05,6.42-13.65.38-43.21,6.48-55.45,6.49-72.58.09-134.21.82-154.86-4.55h0Z"/>
        <path class="cls-8" d="m1512.79,905.67c-10.17-16.88-13.86-30.02-18.1-45.15-2.99-10.67-6.28-22.4-12.51-37.11-11.24-26.55-20.2-37.67-37.62-59.28-8.99-11.15-20.17-25.03-35.13-45.28-18.47-25.01-27.68-45.01-35.64-62.3-7.03-15.27-13-28.25-24.31-40.69-2.38-2.07-4.57-4.26-6.54-6.56-4.59-4.22-9.95-8.42-16.32-12.65-11.69-7.77-21.91-15.14-31.12-21.76-13.05-9.4-23.96-17.25-35.51-23.51-9.55-5.18-19.06-12.11-24.91-16.63-19.52,15.53-85.19,68.52-123.72,108.54-17.49,18.17-36.35,41.15-57.2,66.56-7.13,8.69-14.51,17.69-24.81,30.03-15.58,18.66-40.03,35.84-64.97,53.36-19.63,13.8-39.59,27.82-54.99,42.49-13.09,12.47-31.9,28.84-51.32,45.21-26.52,22.35-54.86,45.24-70.93,57.83-12.34,9.66-24.31,20.1-35.46,30.36-10.82,9.95-21.39,20.27-30.76,29.54-7.66,7.58-13.11,13.76-16.61,18.78,15.77-5.66,32.82-8.63,49.55-9.86,34.98-2.58,68.75,2.45,85.77,6.12,10.56,2.28,20.73-1.43,32.12-5.59,14.46-5.27,30.58-11.16,53.3-9.1,37.49,3.4,50.47-1.45,83.7-13.88l1.04-.39c28.49-10.65,49.09-6.42,71.14-1.89,7.28,1.5,14.74,3.03,22.51,3.96,14.31,1.72,32.48-.52,52.59-4.79,20.92-4.44,43.38-10.95,65.81-17.59,41.98-12.43,53.47-10.2,71.5-6.7,2.06.4,4.23.82,7.49,1.39,6.56,1.14,17.68-4.1,30.16-9.99,19.79-9.33,42.49-20.03,66.13-14.72,26.74,6.01,49.55,5.83,69.63,5.67,6.45-.05,12.64-.1,18.43.04,11.75.27,21.89.04,30.12-2.25,10.42-2.89,1.39-25.72-2.52-32.2h0Z"/>
        <path class="cls-14" d="m1495.32,862.76c-28.5,5.06-58.77,9.53-76.62,8.71-36.94-1.7-85.27,37.07-123.01,30.29-37.73-6.78-81.29,7.7-126.25,21.16-44.95,13.46-75.75,16.79-121.84,23.65-46.09,6.86-49.25-1.08-94.24,10.61-44.99,11.69-92.77,16-122,12.87-17.54-1.88-52.46,1.27-86.33,5.26-8.48,7.98-16.67,16-24.11,23.35-7.66,7.58-13.11,13.76-16.61,18.78,15.77-5.66,32.82-8.63,49.55-9.86,34.98-2.58,68.75,2.45,85.77,6.12,10.56,2.28,20.73-1.43,32.12-5.59,14.46-5.27,30.58-11.16,53.3-9.1,37.49,3.4,50.47-1.45,83.7-13.88l1.04-.39c28.49-10.65,49.09-6.42,71.14-1.89,7.28,1.5,14.74,3.03,22.51,3.96,14.31,1.72,32.48-.52,52.59-4.79,20.92-4.44,43.38-10.95,65.81-17.59,41.98-12.43,53.47-10.2,71.5-6.7,2.06.4,4.23.82,7.49,1.39,6.56,1.14,17.68-4.1,30.16-9.99,19.79-9.33,42.49-20.03,66.13-14.72,26.74,6.01,49.55,5.83,69.63,5.67,6.45-.05,12.64-.1,18.43.04,11.75.27,21.89.04,30.12-2.25,10.42-2.89,1.39-25.72-2.52-32.2-9.67-16.05-13.48-28.71-17.47-42.91h0Z"/>
        <path class="cls-10" d="m1262,552.49c-.67-.37-1.34-.75-2.01-1.11-9.55-5.18-19.06-12.11-24.91-16.63-19.52,15.54-85.19,68.52-123.72,108.54-17.49,18.17-36.35,41.15-57.2,66.55-7.13,8.69-14.51,17.69-24.81,30.03-15.58,18.66-40.03,35.84-64.97,53.36-19.63,13.8-39.59,27.82-54.99,42.49-13.09,12.47-31.9,28.84-51.32,45.21-11.09,9.35-22.51,18.8-33.21,27.54,9.73-3.38,19.41-6.95,26.86-11.57,14.64-9.08,20.92-12.02,45.46-30.76l.1-.07c8.16-6.6,17.89-13.25,30.7-20.27,60.59-33.24,88.89-57.67,115.18-80.39s27.92-38.55,63.83-74.44c35.91-35.89,26.6-40.92,69.93-69.3,28.28-18.53,60.4-48.23,85.08-69.19h0Z"/>
        <path class="cls-11" d="m1242.72,517.61c4.17,3.37,15.01,11.8,25.98,17.75,12.51,6.79,23.88,14.97,37.48,24.76,7.13,5.13,14.91,10.73,24.12,17,.67-19.78,17.28-35.12,40.16-35.65-24.34,11.14-29.53,36.18-14.78,54.65,17.87,16.39,25.46,32.87,34.66,52.87,7.47,16.23,16.1,34.98,33.23,58.31,13.27-33.85,54.71-39.13,81.86-27.75-51.62-2.68-83.94,26.88-46.65,73.15,18.38,22.81,27.84,34.54,40.15,63.62,6.78,16,10.2,28.21,13.31,39.3,3.36,11.99,6.34,22.6,13.06,35.15,16.83-47.45,91.23-64.16,132.22-30.53-1.17-3.51-2.4-7.08-3.69-10.72-9.14-25.6-21.51-55.31-35.52-85.47-16.26-23.19-56.21-14.81-71.22,5.49,5.53-25.63,33.62-37.81,58.7-31.67-5.18-10.53-10.5-20.99-15.91-31.22-18.17-34.4-37.12-66.1-54.25-89.07-27.09-36.36-61.3-46.25-101.36-12.18,8.4-20.54,30.73-33.09,54.9-33.24-40.61-55.59-77.25-83.79-111.32-98.07-34.29-7.92-65.12,4.29-64.04,31.96-7.78-23.06,5.61-38.63,25.67-44.47-16.32-7.15-29.67-11.29-48.57-12.44-43.53-2.92-61.78,32.01-48.21,68.45h0Z"/>
        <path class="cls-15" d="m1616.71,843.34c14.91,1.89,29.21,7.37,40.83,16.91-1.17-3.51-2.4-7.08-3.69-10.72-9.14-25.61-21.51-55.31-35.52-85.47-8.84-12.61-24.69-15.88-39.73-12.98,16,33.6,28.87,65.43,38.11,92.26h0Zm-43.49-103.38c10-3.95,21.59-4.78,32.59-2.08-5.18-10.53-10.5-20.99-15.91-31.22-18.17-34.4-37.12-66.1-54.25-89.07-17.18-23.06-37.22-35.46-59.8-32.77,38.56,47.04,71.63,102.75,97.37,155.14Zm-105.12-164.37c6.64-2.19,13.78-3.37,21.09-3.42-40.61-55.59-77.25-83.79-111.32-98.07-16.59-3.83-32.37-2.95-44.11,2.11,23.76,8.74,48.08,21.39,71.85,39.38,22.02,16.65,42.92,37.16,62.49,60h0Zm-147.24-103.77c4.85-4.64,11.3-8.09,18.65-10.23-16.32-7.15-29.67-11.29-48.57-12.44-15.91-1.07-28.45,2.93-37.29,10.21,20.89,1.4,43.66,5.09,67.21,12.46h0Z"/>
        <path class="cls-12" d="m1242.72,517.61c4.17,3.37,15.01,11.8,25.98,17.75,12.51,6.79,23.88,14.97,37.48,24.76,7.13,5.13,14.91,10.73,24.12,17,.31-9.23,4.09-17.49,10.37-23.73-31.41-21.75-56.03-26.53-83.23-44.08-10.61-6.85-16.09-14.34-18.79-21.05-1.02,9.14.28,19.18,4.07,29.35h0Zm107.64,42.89c-5.17,11.33-3.45,24.64,5.32,35.62,17.87,16.39,25.46,32.87,34.66,52.87,7.47,16.23,16.1,34.98,33.23,58.31,4.22-10.77,11.3-18.65,19.87-24.02-14.38-19.82-26.1-39.82-34.83-53.65-14.84-23.51-28.15-45.85-58.25-69.13Zm101.44,133.86c-12.98,12.77-13.39,33.06,6.98,58.35,18.38,22.81,27.84,34.54,40.15,63.62,6.78,16,10.2,28.21,13.31,39.3,3.36,11.99,6.34,22.6,13.06,35.15,4.57-12.9,13.41-23.52,24.66-31.48-4.31-9.74-8.6-20.91-11.74-32.43-9.3-34.21-22.82-72.21-55.78-100.03-11.12-9.38-21.36-20.68-30.65-32.48h0Z"/>
        <path class="cls-7" d="m1089.96,924.29c-4.69,6.19-20.26-.25-14.2-18.61,6.06-18.36,35.21-35.85,69.07-20.69,33.85,15.16,25.99,46.84,12.16,52.03-13.84,5.19-15.79-5.65-14.98-12.15,1.24-9.88-17.85-8.32-12.73,7.69,3.64,11.38,6.64,23.41-10.86,23.72-11.78.21-25.68-4.76-23.88-13.52,1.26-6.15,7.95-11.55,11.89-17.27,8.63-12.53-4.93-19.32-11.86-10.09-1.53,2.04-2.36,5.94-4.6,8.9h0Zm243.83-211.35c4.88-3.22,14.33,5.24,5.44,16.77-8.89,11.53-33.97,16.67-54.24-2.56-20.26-19.23-6.76-39.76,4.37-39.99,11.13-.23,9.8,7.96,7.6,12.37-3.35,6.71,10.6,10.37,10.96-2.28.26-9,1.14-18.29,13.65-14.14,8.42,2.79,17.05,9.8,13.59,15.57-2.43,4.06-8.53,6.22-12.76,9.3-9.26,6.75-1.32,14.96,5.9,10.13,1.6-1.06,3.16-3.63,5.49-5.17h0Zm-197.88,4.97c5.98,1.95,13.37-9.53.85-18.95-12.51-9.42-39.99-7.59-55.52,18.14-15.52,25.72,4.34,43.17,15.95,40.23,11.6-2.94,7.89-11.06,4.35-15-5.39-6.01,8.03-13.79,12.02-.76,2.84,9.25,6.4,18.64,18.19,10.76,7.94-5.3,14.88-15.03,9.64-20.03-3.68-3.51-10.63-4.02-15.89-6-11.53-4.35-5.64-15.13,3.23-12.19,1.96.65,4.31,2.86,7.17,3.8Z"/>
        <path class="cls-3" d="m760.39,983.41s3.75,8.37,7.7,8.3c6.83-.13,9.94-1.35,16.38-2.74,8.35-1.81,19.57-4.53,23.69-12.07,1.06-1.94-8.7-11.21-13.05-13.53-5.74,3.64-32.99,14.57-34.72,20.05h0Zm323.78-21.31c.29-.88.45-3.39.53-5.31-6.12-4.69-25.07-18.54-31.18-15.09-3.7,2.09-6.61,6.09-8.47,10.28-1.9,4.3-2.69,8.43-2,10.5,1.72,1.12,10.85,1.33,20.17,1.14,9.39-.19,18.37-.9,20.96-1.52h0Zm325.05-88.82s-4.94,10.46-1.63,14.18c3.32,3.72,5.85,7.02,13.68,10.24,7.83,3.21,10.76,4.8,12.07,12.23,1.32,7.43,19.48,2.27,22.21,1.69,2.73-.58,2.7-15.47,1.36-21.54-1.34-6.07-7.38-9.11-16.43-9.76-9.05-.65-17.1-5.51-22.22-7.11-5.11-1.6-9.05.08-9.05.08h0Zm-238.18,4.07s3.75,8.37,7.7,8.3c6.83-.13,9.94-1.35,16.38-2.74,8.35-1.81,19.57-4.53,23.69-12.07,1.06-1.94-8.7-11.21-13.05-13.53-5.74,3.64-32.99,14.57-34.72,20.05h0Zm58.86-153.45s8.91,10.36,6.3,15.64c-2.61,5.27-4.45,9.83-12.37,15.95-7.91,6.12-10.74,8.84-9.91,17.71.83,8.87-21.47,8.69-24.76,8.88-3.3.2-7.93-16.77-8.3-24.1-.38-7.33,5.55-12.69,15.64-16.27,10.1-3.58,17.75-11.63,23.07-15.06,5.32-3.43,10.34-2.75,10.34-2.75h0Zm-281.89,111.19s-3.04-10.16.48-13.08c13.96-11.57,30.5-19.18,46.96-13,2.4.9.16,12.11-1.89,17.43-2.05,5.32-7.94,7.24-16.23,6.59-8.29-.66-16.26,2.63-21.11,3.38-4.86.75-8.2-1.32-8.2-1.32h0Z"/>
        <path class="cls-1" d="m1417.68,774.97c1.78,3.14,13.13,4.64,13-3.79-.24-16.48-19.38-7.5-13,3.79Zm-591.82,219.21c3.14,5.56,10.12,3.58,10.02-2.92-.19-12.7-13.17-2.64-10.02,2.92Zm362.88-44.12c2.86,5.64,11.48,1.6,12.22-4.53,1.23-10.13-16.66-4.23-12.22,4.53Zm-175.17,14.74c1.37,2.42,10.12,3.58,10.02-2.92-.19-12.7-14.94-5.78-10.02,2.92Zm-107.33,12.36c-3.53,3.82,1.79,8.02,6.63,6.38,8-2.72-1.15-12.31-6.63-6.38Zm569.71-53.77c1.77,3.14,13.12,4.64,13-3.78-.24-16.48-19.38-7.5-13,3.78Zm-153.79,6.03c2.86,5.64,11.48,1.59,12.22-4.53,1.23-10.13-16.66-4.23-12.22,4.53Zm58.43-24.18c.84,4.83,4.61,8.35,7.2,7.26,2.6-1.08,5.36-3.65,5.58-8.81.23-5.38-14.38-7.65-12.79,1.54h0Zm85.24-35.08c1.75,3.42,5.64,3.81,9.75-.95,4.12-4.76,2.49-7.29-.63-8.7-7.48-3.38-12.84,2.37-9.13,9.65h0Zm-209.35-125.6c.7,6.49,8.4,8.01,10.87,4.57,2.46-3.44,1.54-10.28-.52-12.01-5.23-4.39-11.16-.18-10.34,7.44h0Zm-77.04,104.05c2.86,5.64,11.48,1.59,12.22-4.53,1.23-10.13-16.66-4.23-12.22,4.53Zm26.84-34.2c.84,4.83,4.61,8.35,7.2,7.26,2.6-1.08,5.36-3.65,5.58-8.81.23-5.38-14.38-7.65-12.79,1.54h0Zm146.06-107.13c1.37,2.42,10.12,3.58,10.02-2.92-.19-12.7-14.94-5.78-10.02,2.92Zm4.99,51.24c2,3.94,8.02,1.11,8.54-3.17.86-7.08-11.64-2.95-8.54,3.17Zm22.21-24.4c1.74,3.43,5.64,3.81,9.75-.95,4.12-4.77,2.49-7.29-.63-8.7-7.48-3.38-12.84,2.37-9.13,9.65Zm-72.5,26.35c.84,4.83,4.61,8.35,7.2,7.26,2.6-1.08,5.36-3.65,5.58-8.81.23-5.38-14.38-7.65-12.79,1.54h0Zm-118.79-164.24c2.79,3.43,7.77,1.07,8.09-2.79.63-7.49-13.07-3.33-8.09,2.79Zm-129.6,267.54c.69,6.49,8.4,8.01,10.87,4.57,2.46-3.44,1.54-10.28-.52-12.01-5.23-4.39-11.16-.18-10.34,7.44h0Zm99.75-129.28c1.37,2.42,10.12,3.58,10.02-2.92-.19-12.71-14.94-5.78-10.02,2.92Zm243.44,115.5c2.79,3.43,7.77,1.07,8.09-2.79.63-7.49-13.07-3.33-8.09,2.79Zm51.02-8.77c1.37,2.42,10.12,3.58,10.02-2.92-.19-12.7-14.94-5.78-10.02,2.92Zm-219.37-281.25c.84,4.83,4.61,8.35,7.21,7.26,2.6-1.08,5.36-3.65,5.58-8.81.23-5.38-14.38-7.65-12.79,1.54h0Zm-106.98,88.96c2.79,3.43,7.77,1.07,8.09-2.79.63-7.49-13.07-3.33-8.09,2.79Zm149.34,28.93c2.8,3.43,7.77,1.07,8.09-2.79.63-7.49-13.07-3.33-8.09,2.79Zm-229.8,66.73c-1.45,6.37,5.35,10.31,8.8,7.85,3.45-2.46,4.79-9.22,3.4-11.53-3.53-5.85-10.5-3.79-12.2,3.68Zm-62.83,113.87c4.08,7.21,13.13,4.64,13-3.79-.24-16.48-17.08-3.42-13,3.79Zm328.46-198.31c2.8,3.43,7.77,1.07,8.09-2.79.63-7.49-13.07-3.33-8.09,2.79Zm34.66-2.6c.84,4.83,4.61,8.35,7.21,7.26,2.6-1.08,5.36-3.65,5.58-8.81.23-5.38-14.38-7.65-12.79,1.54h0Zm-124.95-56.52c1.23,2.17,9.1,3.22,9.02-2.63-.17-11.43-13.44-5.2-9.02,2.63Zm91.69,19.54c.69,6.49,8.4,8.01,10.87,4.57,2.46-3.44,1.54-10.28-.52-12.01-5.23-4.39-11.16-.18-10.34,7.44h0Z"/>
        <path class="cls-9" d="m928.17,961.62c1.21-3.36,3.71-6.26,7.19-7.89,4.64-2.18,9.61-4.03,14.75-5.23,4.56-1.06,9.25-1.61,13.95-1.4,4.77.21,9.47,1.16,13.97,3.04,4.09,1.71,7.99,4.18,11.62,7.54l.26.22c2.8,2.64,4.26,6.17,4.37,9.74.1,3.47-1.07,6.97-3.55,9.73l-.24.26c-2.65,2.81-6.18,4.28-9.74,4.39-3.58.11-7.19-1.15-10-3.79-1.14-1.07-2.35-1.85-3.59-2.37-1.36-.57-2.82-.86-4.31-.92-2.18-.09-4.54.23-6.97.84-2.87.72-5.82,1.86-8.69,3.2l-.57.27h-.06c-3.3,1.36-6.86,1.35-10.02.21-3.36-1.21-6.26-3.71-7.9-7.19l-.27-.57v-.06c-1.36-3.3-1.35-6.86-.21-10.02h0Zm15.95-125.39s-3.81-12.7,1.79-17.34c7.94-6.58,16.73-11.96,25.98-14.52,8.13-2.25,16.55-2.32,24.99.85h.04c3.35,1.31,4.04,5.99,3.29,11.28-.53,3.79-1.67,8.21-2.77,11.15-.03.03-.1.23-.1.26-1.43,3.7-4.11,6.23-7.82,7.73-3.42,1.39-7.66,1.82-12.52,1.44-5.12-.4-10.4.97-14.64,2.08-1.99.52-3.76.98-5.55,1.26-6.3.97-10.76-1.78-10.77-1.79l-1.46-.81-.47-1.58h0Zm387.44-126.67c2.42-1.6,5.31-1.75,7.97-.72,1.68.65,3.28,1.8,4.55,3.36,1.22,1.49,2.16,3.36,2.6,5.52.81,4.02-.1,9.08-4.25,14.47-.49.64-1.03,1.26-1.6,1.86-5.27,5.55-13.85,9.46-23.64,9.94-9.61.47-20.48-2.33-30.56-10.11-1.5-1.15-2.98-2.42-4.43-3.8-8.32-7.9-11.56-16.15-11.72-23.47-.07-3.58.6-6.92,1.77-9.88,1.18-2.98,2.9-5.6,4.9-7.72,3.46-3.64,7.85-5.83,12.1-5.91h.02c3.24-.07,5.78.49,7.73,1.46,1.98.99,3.35,2.37,4.24,3.99.86,1.55,1.23,3.23,1.27,4.91v.02c.06,2.82-.85,5.71-1.92,7.86-.06.04-.24-.1-.17-.03.1.12.32.21.6.27.36.07.75.03,1.12-.13.9-.41,1.67-1.69,1.74-4.31.15-5.05.49-10.23,2.84-14.02,2.82-4.55,7.62-6.69,16.13-3.87v.02c2.49.82,4.98,1.97,7.23,3.32,3.04,1.84,5.72,4.09,7.48,6.51,2.19,3.02,3.1,6.36,1.98,9.73h-.02c-.21.65-.51,1.3-.9,1.93-2.19,3.64-5.89,5.77-9.59,7.88-1.53.87-3.05,1.75-4.26,2.62-1.89,1.38-2.6,2.53-2.52,3.32.01.12.06.25.13.35.1.14.26.27.44.37.76.39,1.94.29,3.22-.56.36-.24.89-.82,1.47-1.46,1.13-1.24,2.37-2.61,4.04-3.71h0Zm-133.9-98.1c15.92-.77,31.12,4.26,42.83,13.03,11.88,8.9,20.21,21.66,22.17,36.16.18,1.36.31,2.72.37,4.1.63,13.01-4.09,24.96-12.55,34.13-8.31,9.01-20.21,15.3-34.12,17.18-1.79.24-3.63.41-5.52.5-15.92.78-31.12-4.26-42.83-13.03-11.88-8.9-20.22-21.66-22.17-36.16-.18-1.35-.31-2.72-.37-4.1-.63-13.01,4.09-24.96,12.54-34.13,8.31-9.01,20.21-15.3,34.12-17.18,1.79-.24,3.63-.41,5.52-.5h0Zm-356.56,296.24c10.01-6.23,22.58-9.22,35.34-7.49,1.63.22,3.11.48,4.43.78,11.08,2.5,20.24,8.4,26.31,16.24,6.2,8.01,9.18,18,7.76,28.48-.16,1.16-.35,2.26-.58,3.29-2.6,11.59-10.21,21.31-20.42,27.66-10.01,6.23-22.58,9.22-35.33,7.49-1.63-.22-3.11-.48-4.43-.78-11.08-2.49-20.24-8.4-26.31-16.24-6.2-8-9.18-18-7.76-28.48.16-1.16.35-2.26.58-3.29,2.6-11.59,10.21-21.31,20.41-27.66h0Zm271.97-138c14.31-2.81,28.74-.27,40.49,6.12,11.93,6.48,21.17,16.92,24.86,29.79.35,1.2.64,2.43.88,3.66,2.3,11.69-.4,23.13-6.83,32.55-6.32,9.25-16.27,16.52-28.6,20.07-1.58.46-3.23.85-4.93,1.19-14.31,2.81-28.74.27-40.49-6.12-11.93-6.48-21.17-16.92-24.86-29.79-.35-1.2-.64-2.42-.88-3.66-2.3-11.69.39-23.13,6.83-32.55,6.33-9.25,16.27-16.53,28.61-20.07,1.58-.46,3.23-.85,4.93-1.19h0Zm188.16,10.32c19.71-.96,38.53,5.28,53.02,16.13,14.67,10.98,24.95,26.71,27.36,44.58.23,1.67.38,3.36.46,5.05.78,15.97-5.03,30.65-15.41,41.92-10.24,11.1-24.93,18.86-42.11,21.18-2.22.3-4.5.51-6.84.62-19.71.96-38.53-5.28-53.02-16.13-14.67-10.98-24.95-26.71-27.36-44.58-.22-1.67-.38-3.36-.46-5.05-.78-15.97,5.02-30.65,15.41-41.92,10.24-11.1,24.93-18.86,42.11-21.18,2.22-.3,4.5-.51,6.84-.62h0Zm-208.04,146.72c-2.05,2.7-5.21,3.99-8.58,3.89-2.18-.07-4.45-.74-6.52-1.99-2.01-1.22-3.85-3-5.23-5.32-2.62-4.4-3.63-10.76-.95-18.9.34-1,.72-1.98,1.14-2.93,4.03-8.96,12.8-17.38,24.55-22.17,11.57-4.72,26.08-5.97,41.78-.79,2.27.75,4.64,1.67,7.1,2.77,13.54,6.06,21.02,14.7,24.32,23.49,1.61,4.28,2.22,8.58,2.06,12.64-.16,4.07-1.11,7.94-2.63,11.33-2.58,5.76-6.86,10.19-11.82,12.05-3.84,1.45-7.05,1.85-9.7,1.52-2.62-.33-4.7-1.34-6.34-2.8-1.57-1.4-2.67-3.17-3.39-5.1-1.23-3.28-1.36-7.06-.98-10.05.09-.74-.12-1.19-.45-1.38-.44-.24-1.06-.32-1.72-.22-.74.11-1.47.44-2.05,1h0c-1.27,1.23-1.86,3.65-.61,7.56,1.99,6.21,3.79,12.66,2.59,18.11-1.39,6.33-6.11,10.69-17.24,10.89-3.35.06-6.87-.26-10.22-.95-4.45-.91-8.63-2.48-11.77-4.65-3.73-2.58-6.11-6-6.19-10.25-.01-.82.07-1.67.25-2.54,1.05-5.14,4.66-9.32,8.25-13.47,1.52-1.75,3.04-3.51,4.26-5.29,2.07-3,2.42-5.23,1.8-6.58h.01c-.17-.39-.44-.69-.75-.92h-.02c-.37-.26-.81-.43-1.3-.49-1.56-.21-3.49.57-5.03,2.63-.38.51-.84,1.6-1.34,2.79-.82,1.94-1.72,4.09-3.27,6.13h0Zm-8.33-4.22c.81.03,1.51-.2,1.87-.68.91-1.2,1.62-2.88,2.26-4.4.69-1.65,1.33-3.16,2.33-4.49,3.5-4.65,8.36-6.35,12.57-5.79,1.8.24,3.49.89,4.92,1.89,1.47,1.05,2.67,2.45,3.45,4.17h.01c1.7,3.72,1.42,8.83-2.52,14.55-1.39,2.02-3.1,3.99-4.81,5.97-2.9,3.36-5.82,6.73-6.45,9.8-.05.25-.08.51-.07.75.02,1.34,1.06,2.61,2.69,3.74,2.23,1.54,5.36,2.69,8.78,3.39,2.73.56,5.64.83,8.43.78,6.37-.12,8.91-1.92,9.48-4.53.77-3.48-.75-8.75-2.4-13.91-2.37-7.43-.53-12.72,2.76-15.86h0c1.85-1.76,4.16-2.8,6.46-3.15,2.38-.35,4.81.04,6.81,1.13,3.11,1.71,5.15,4.91,4.59,9.46-.24,1.93-.19,4.3.53,6.21v.02c.28.76.68,1.42,1.2,1.89.46.41,1.09.7,1.94.81,1.42.18,3.33-.11,5.85-1.06h.02c2.92-1.1,5.56-3.95,7.26-7.76,1.1-2.46,1.79-5.3,1.91-8.35.12-3.05-.34-6.28-1.54-9.48v-.02c-2.61-6.96-8.74-13.88-20.03-18.93-2.07-.93-4.19-1.74-6.35-2.46-13.7-4.52-26.26-3.47-36.2.58-9.76,3.98-16.97,10.79-20.19,17.97h0c-.33.74-.61,1.46-.83,2.15v.02c-1.84,5.58-1.34,9.62.21,12.21.67,1.13,1.53,1.97,2.46,2.53.86.52,1.76.8,2.59.83h0Zm52.31-208.46c.21.07.53-.06.87-.3.44-.32.82-.82,1.09-1.43.31-.69.47-1.52.4-2.45-.16-2.25-1.6-4.96-5.19-7.67-.47-.35-.97-.69-1.49-1.01-5.29-3.19-13.04-4.35-21.2-2.53-8.33,1.86-17,6.87-23.89,16.02v.02c-1.09,1.45-2.11,2.95-3.04,4.49-5.05,8.38-5.92,15.62-4.49,21.28.66,2.59,1.79,4.85,3.22,6.75,1.42,1.88,3.12,3.39,4.91,4.47,2.72,1.64,5.59,2.29,7.84,1.72h.02c1.98-.5,3.27-1.13,4.04-1.81.4-.37.61-.72.69-1.05.1-.41.06-.92-.08-1.46v-.02c-.37-1.46-1.35-2.94-2.33-4.03v-.02c-2.72-3.03-2.85-6.42-1.44-9.27.9-1.81,2.46-3.32,4.36-4.25,1.83-.9,4.01-1.31,6.21-.96,3.89.61,7.82,3.45,9.77,9.84,1.26,4.09,2.64,8.19,4.62,10.02,1.31,1.22,3.53,1.16,7.45-1.45,1.86-1.24,3.63-2.72,5.13-4.29,1.88-1.97,3.37-4.09,4.11-6.06.48-1.27.59-2.36.14-3.03-.1-.16-.2-.28-.27-.35-1.67-1.59-5.09-2.47-8.48-3.34-2.03-.52-4.07-1.04-6.04-1.79-5.55-2.1-8.25-5.6-8.88-9.11-.3-1.65-.13-3.28.41-4.77.53-1.44,1.42-2.76,2.6-3.83,2.73-2.49,7.04-3.7,11.8-2.13,1.29.43,2.49,1.18,3.79,2.01,1.06.68,2.24,1.42,3.37,1.79h0Zm5.69,6.22c-2.39,1.77-5.33,2.42-8.2,1.49-2.01-.66-3.68-1.71-5.18-2.66-.8-.51-1.54-.97-2.01-1.13-1.69-.56-3.05-.28-3.8.4-.2.19-.36.4-.44.63-.06.18-.09.37-.05.56.17.94,1.28,2.02,3.76,2.95,1.52.57,3.36,1.05,5.2,1.52,4.39,1.13,8.81,2.26,12.05,5.36.59.57,1.08,1.13,1.45,1.69,2.06,3.09,2.07,6.71.69,10.38-1.12,2.98-3.24,6.04-5.85,8.79-1.97,2.07-4.21,3.95-6.47,5.46-7.88,5.26-13.34,4.45-17.46.63-3.46-3.2-5.28-8.43-6.86-13.59-.87-2.82-2.13-4-3.28-4.18-.49-.08-.98.01-1.38.21-.33.17-.58.38-.69.59,0,0,.06.09.21.26,1.7,1.88,3.44,4.58,4.18,7.47.44,1.72.53,3.53.1,5.33-.45,1.88-1.44,3.65-3.15,5.18h-.02c-1.7,1.53-4.13,2.81-7.47,3.65-4.36,1.11-9.46.11-14.02-2.64-2.65-1.6-5.15-3.8-7.2-6.53-2.05-2.71-3.67-5.95-4.61-9.63-1.91-7.56-.91-16.96,5.41-27.45,1.15-1.9,2.31-3.63,3.49-5.19,8.2-10.87,18.6-16.83,28.63-19.08,10.21-2.28,20.14-.69,27.12,3.52.75.46,1.48.95,2.16,1.46,5.76,4.34,8.12,9.25,8.42,13.57.16,2.31-.27,4.47-1.09,6.32-.86,1.93-2.15,3.53-3.67,4.66h0Zm193.76-3.86c-.28-.11-.5-.15-.59-.09-.89.59-1.75,1.53-2.52,2.39-.98,1.08-1.87,2.07-2.95,2.79-3.97,2.65-8.24,2.62-11.39,1.02-1.36-.69-2.52-1.68-3.38-2.88-.89-1.24-1.45-2.71-1.6-4.31-.31-3.39,1.27-7.3,5.83-10.62,1.6-1.16,3.3-2.14,5-3.11,2.8-1.6,5.62-3.21,6.68-4.99.06-.1.11-.21.15-.32h-.01c.2-.62-.14-1.48-.83-2.43-1.12-1.55-2.95-3.05-5.09-4.34h-.02c-1.76-1.05-3.69-1.94-5.58-2.57h0c-3.99-1.31-5.9-.87-6.7.43-1.29,2.07-1.51,6.04-1.62,9.98-.18,6.34-3.08,9.93-6.5,11.48-1.95.88-4.06,1.06-5.97.69-1.99-.38-3.82-1.38-5.11-2.83-2.04-2.29-2.8-5.46-1.04-8.98v-.02c.59-1.18,1.09-2.71,1.06-4.07,0-.47-.09-.89-.25-1.19-.13-.24-.37-.46-.75-.65-.81-.41-2.09-.64-3.96-.6-2.09.05-4.43,1.3-6.41,3.38-1.31,1.38-2.44,3.12-3.24,5.12-.8,2.02-1.26,4.29-1.2,6.72v.02c.11,5.36,2.65,11.56,9.19,17.76,1.26,1.19,2.53,2.28,3.81,3.27,8.37,6.46,17.32,8.79,25.18,8.4,7.69-.37,14.28-3.29,18.18-7.41.39-.41.75-.83,1.07-1.25,2.49-3.23,3.11-5.94,2.71-7.92-.16-.8-.49-1.47-.9-1.98-.36-.45-.79-.76-1.21-.93h0Zm-247.76,237.74s-.39,10.05-3.57,12.69c-.28.22-.57.41-.89.57-1.88.96-11.6,2.1-21.07,2.29-9.97.2-20.28-.7-23.01-4-.26-.32-.49-.67-.67-1.03-1.84-3.62-1.29-10.01,1.29-15.84,2.13-4.81,5.65-9.49,10.33-12.14,10.71-6.06,36.01,14.22,36.09,14.28l1.53,1.24-.03,1.95h0Zm-8.61,6.2c.23-.72.36-2.76.43-4.33-4.99-3.82-20.44-15.11-25.42-12.3-3.01,1.7-5.39,4.96-6.9,8.38-1.55,3.5-2.2,6.87-1.63,8.56,1.4.91,8.84,1.08,16.44.93,7.66-.16,14.98-.74,17.08-1.24h0Zm152.8-239.02s10.64,12.27,6.81,20.02l-.56,1.11c-2.57,5.25-4.89,9.99-12.97,16.24-3.6,2.78-6.03,4.76-7.27,6.76-1.09,1.74-1.42,3.9-1.09,7.36.86,9.22-10.66,11.97-19.89,12.84-3.03.29-5.71.37-7.39.43-.36.05-.93.04-1.31.06-3.88.21-7.15-5.21-9.28-11.92v-.02c-1.69-5.34-3.02-11.75-3.26-15.75l-.02-.25c-.25-4.76,1.46-8.86,4.8-12.34,3.15-3.27,7.77-5.91,13.54-7.96,6.42-2.28,11.99-6.73,16.46-10.31,2.09-1.67,3.97-3.17,5.77-4.33,6.58-4.23,12.95-3.38,12.97-3.38l1.63.18,1.04,1.27h0Zm-.46,16.42c1.03-2.08-2.66-7.28-4.63-9.82-1.44.11-3.73.55-6.18,2.13-1.39.9-3.14,2.3-5.09,3.86-4.95,3.96-11.11,8.89-18.81,11.62-4.6,1.63-8.15,3.61-10.39,5.94-1.76,1.83-2.67,3.93-2.55,6.3v.19c.22,3.42,1.4,9.03,2.91,13.8,1.09,3.42.5,6.31,1.12,6.28l1.46-.05c1.6-.05,4.15-.13,6.9-.39,5.68-.53,12.82-1.63,12.6-4.01-.51-5.41.17-9.06,2.26-12.41,1.94-3.11,4.89-5.55,9.2-8.88,6.6-5.1,8.53-9.04,10.66-13.4l.55-1.15h0Zm-467.54,245.91c.92,1.74,2.24,4,2.97,3.99,4.79-.09,7.64-.78,11.38-1.67,1.47-.35,3.04-.73,4.23-.98,4.03-.87,8.73-1.96,12.71-3.64,3.6-1.53,6.73-3.56,8.28-6.39l.03-.05c.27-.76-2.16-.12-3.77-1.73-1.91-1.9-4.11-3.81-5.88-5.1-2.09,1.1-4.93,2.45-8.09,3.96-8.21,3.91-18.87,8.99-21.85,11.62h0Zm3.14,12.1c-6.72.13-11.43-10.59-11.44-10.62l-.68-1.44.48-1.51c1.73-5.48,16.13-12.34,26.87-17.45,4.33-2.06,8.01-3.82,9.55-4.79l2-1.27c.54.29,1.76.85,2.18,1.17,2.51,1.37,6.39,4.54,9.45,7.6v.02c3.98,3.98,6.67,8.5,5.16,11.33-.06.11-.14.29-.21.39-2.6,4.5-7.05,7.5-12.04,9.62-4.74,2.01-9.83,3.19-14.15,4.13-1.9.41-3.03.68-4.07.93-4.24,1.02-7.49,1.79-13.08,1.9h0Zm407.52-118.15c.92,1.74,2.24,4,2.97,3.99,4.79-.09,7.64-.78,11.38-1.67,1.47-.35,3.04-.73,4.23-.98,4.03-.87,8.73-1.96,12.71-3.64,3.08-1.31,4.72-1.89,5.73-2.95,1.04-1.08,1.37-2.66-1.2-5.22-1.91-1.9-4.11-3.81-5.88-5.1-2.09,1.1-4.93,2.45-8.09,3.96-8.21,3.91-18.87,8.99-21.85,11.62h0Zm3.14,12.1c-6.72.13-11.43-10.59-11.44-10.62l-.68-1.44.48-1.51c1.73-5.48,16.13-12.34,26.87-17.45,4.33-2.06,8.01-3.82,9.55-4.79l2-1.27c.54.29,1.76.85,2.18,1.17,2.51,1.37,6.39,4.54,9.45,7.6v.02c3.98,3.98,6.67,8.5,5.16,11.33-.06.11-.14.29-.21.39-2.6,4.5-7.05,7.5-12.04,9.62-4.74,2.01-9.83,3.19-14.15,4.13-1.9.41-3.03.68-4.07.93-4.24,1.02-7.49,1.79-13.08,1.9h0Zm233.34-13.05c-1.02,2.41-2.66,6.86-1.54,8.12l.71.81c2.67,3.02,5.08,5.75,11.48,8.38,4.33,1.78,7.33,3.13,9.69,5.3,2.57,2.37,4,5.3,4.83,9.98.26,1.47,5.98.73,10.46-.06,2.27-.4,4.38-.91,5.69-1.22.61-.33.14-2.77.22-5.08.16-4.19-.13-8.96-.72-11.76l-.04-.16c-.39-1.78-1.51-3.16-3.21-4.17-2.27-1.35-5.52-2.13-9.55-2.42-7.01-.51-13.2-3.17-18.17-5.3-1.93-.83-3.66-1.57-4.97-1.98-2.1-.66-3.82-.59-4.9-.41h0Zm-7.59,13.51c-5.08-5.69.98-18.62,1-18.66l.64-1.31,1.34-.61s5.37-2.29,11.93-.24c1.77.55,3.64,1.36,5.74,2.26,4.41,1.89,9.91,4.26,15.55,4.67,5.27.38,9.73,1.52,13.12,3.54,3.66,2.17,6.07,5.27,6.98,9.39l.04.22c1.06,5.01,2.7,24.31-4.36,26.13-.37.11-.81.18-1.19.27-1.38.33-3.6.87-6.19,1.32-8,1.42-18.38,1.72-19.84-6.51-.49-2.74-1.18-4.33-2.36-5.41-1.39-1.28-3.77-2.33-7.27-3.77-8.13-3.33-11.13-6.73-14.46-10.5l-.7-.79h0Zm-453.5-65.02c-.99.82-.22,4.69.35,7.02.98.29,2.42.52,4.18.25,1.13-.17,2.84-.62,4.74-1.11,4.81-1.26,10.82-2.82,17.3-2.31,3.66.29,6.67.03,8.85-.85,1.59-.64,2.72-1.68,3.28-3.15l.08-.19c.92-2.46,1.87-6.19,2.32-9.42.24-1.73.31-2.66-.69-3.05-6.69-2.5-10.91-1.95-17.45-.14-8.01,2.22-15.81,7.03-22.96,12.96h0Zm95.94-58.18c3.77-1.82,7.93-1.95,11.59-.67,3.66,1.27,6.83,3.95,8.65,7.72s1.94,7.92.67,11.59c-1.27,3.65-3.95,6.83-7.72,8.65-3.2,1.55-6.3,3.33-9.02,5.38-2.28,1.71-4.26,3.57-5.75,5.58-1.03,1.38-1.83,2.91-2.32,4.57-.45,1.51-.63,3.17-.5,4.97.31,4.17-1.11,8.09-3.65,11.04-2.54,2.94-6.2,4.92-10.37,5.23l-.6.04h-.05c-3.93.12-7.59-1.29-10.39-3.7-2.94-2.54-4.92-6.2-5.23-10.37l-.04-.61c-.33-5.4.27-10.42,1.64-15.07,1.52-5.19,4-9.9,7.16-14.17,3.13-4.23,6.89-7.9,11-11.09,4.6-3.56,9.71-6.57,14.92-9.09h0Zm213.49-152.31c-3.84-1.67-6.64-4.73-8.06-8.33-1.42-3.6-1.46-7.75.21-11.6,1.67-3.84,4.73-6.64,8.33-8.06,3.61-1.42,7.76-1.47,11.59.19v.02c5.45,2.37,9.82,5.61,13.26,9.49,3.74,4.21,6.36,9.14,8.06,14.47,1.62,5.07,2.34,10.49,2.4,15.94.07,6.04-.69,12.14-1.97,17.87-.9,4.09-3.39,7.44-6.67,9.53-3.27,2.09-7.35,2.93-11.44,2.03-4.09-.9-7.44-3.39-9.53-6.67-2.09-3.27-2.93-7.35-2.03-11.44.76-3.43,1.25-6.95,1.27-10.28.02-2.82-.28-5.48-1.01-7.79-.43-1.33-1.02-2.51-1.8-3.44-.7-.81-1.56-1.48-2.61-1.93h0Zm-61.97,312.62h0c-3.13-2.8-4.83-6.59-5.05-10.46-.22-3.78.98-7.65,3.62-10.74l.21-.24c2.79-3.13,6.58-4.83,10.45-5.05,3.88-.22,7.85,1.04,10.98,3.83,1.23,1.1,2.69,1.99,4.3,2.68,1.83.78,3.86,1.32,5.97,1.64,2.59.39,5.28.45,7.92.23,2.75-.23,5.42-.76,7.84-1.54,3.99-1.29,8.12-.84,11.57.93,3.44,1.77,6.22,4.86,7.51,8.85,1.28,3.99.84,8.12-.93,11.57-1.77,3.44-4.86,6.22-8.85,7.51-4.59,1.48-9.58,2.48-14.66,2.9-4.9.41-9.94.28-14.86-.46-4.9-.73-9.72-2.07-14.22-4.08-4.27-1.91-8.26-4.41-11.79-7.57h0Zm175.1-140.79c-.05-4.19,1.61-8.01,4.33-10.8,2.72-2.79,6.5-4.55,10.68-4.6,4.19-.05,8.01,1.61,10.8,4.33,2.79,2.72,4.54,6.5,4.6,10.69.02,2.66.42,5,1.08,6.99.69,2.07,1.68,3.79,2.86,5.16.61.71,1.29,1.35,2,1.89.71.54,1.47,1,2.26,1.37.71.33,1.4.57,2.07.72.64.14,1.3.22,1.96.21.76,0,1.45-.11,2.04-.31.51-.18.97-.43,1.37-.77,3.18-2.73,7.16-3.92,11.03-3.63,3.87.29,7.63,2.06,10.36,5.24,2.74,3.18,3.92,7.16,3.63,11.03-.29,3.87-2.06,7.63-5.24,10.36-3.24,2.78-6.83,4.86-10.61,6.26-3.93,1.46-8.05,2.2-12.19,2.24-2.92.03-5.87-.29-8.78-.93-2.88-.64-5.73-1.61-8.48-2.89-2.69-1.26-5.3-2.83-7.77-4.72-2.37-1.81-4.61-3.91-6.65-6.28-3.5-4.09-6.41-8.95-8.4-14.51-1.83-5.12-2.9-10.82-2.96-17.05h0Z"/>
        <path class="cls-9" d="m1057.06,868.22c2.15-14.17,4.3-28.29,14.1-41.28l7.91-10.48-12.86,2.5c-27.86,5.43-46.62,19.76-58.67,37.79-8.04,12.03-13.04,25.69-15.74,39.4-5.41-14.85-13.4-26.69-24.77-36.58-18.93-16.45-46.98-27.08-88.07-37.01l-7.13-1.72.99,7.28c4.77,35.33,18.19,62.87,39.18,82.53,24.21,22.68,55.1,34.51,87.53,37.49,38.87-19.01,51.25-38.63,57.53-79.94Z"/>
        <path class="cls-15" d="m1454.9,628.77c1.78,3.14,13.13,4.64,13-3.78-.24-16.48-19.38-7.5-13,3.78Zm126.57,194.16c2.86,5.64,11.48,1.59,12.22-4.53,1.23-10.12-16.66-4.23-12.22,4.53Zm-68.29-45.74c1.77,3.14,13.12,4.64,13-3.79-.24-16.48-19.38-7.5-13,3.79Zm46.63,18.39c2.85,5.64,11.48,1.59,12.22-4.53,1.23-10.12-16.66-4.23-12.22,4.53Zm-45.67,24.21c1.22,7.01,4.61,8.35,7.21,7.26,2.6-1.08,5.36-3.65,5.58-8.81.23-5.38-14-5.47-12.79,1.54h0Zm20.54-89.34c2.73,5.35,5.64,3.81,9.75-.95,4.12-4.77,2.49-7.29-.63-8.7-7.48-3.38-11.85,4.3-9.13,9.65Zm-145.11-169.36c1.37,2.42,10.12,3.58,10.02-2.92-.19-12.71-14.94-5.78-10.02,2.92Zm4.99,51.24c2,3.94,8.02,1.11,8.54-3.17.86-7.08-11.64-2.95-8.54,3.17Zm22.21-24.4c1.74,3.42,5.64,3.81,9.75-.95,4.12-4.76,2.49-7.29-.63-8.7-7.48-3.38-12.84,2.37-9.13,9.65h0Zm-147.47-80.8c3.89,4.77,7.77,1.07,8.09-2.79.63-7.48-11.98-1.99-8.09,2.79Zm344.14,454.98c.76,7.06,8.4,8.01,10.87,4.57,2.46-3.44,1.54-10.28-.52-12.01-5.23-4.39-11.1.38-10.34,7.44h0Zm-142.24-225.25c3.88,4.77,7.77,1.07,8.09-2.79.63-7.49-11.98-1.99-8.09,2.79Zm13.74-34.47c3.14,5.56,10.12,3.58,10.02-2.92-.19-12.7-13.17-2.64-10.02,2.92Zm16.82-53.51c1.21,7.01,4.61,8.35,7.21,7.26,2.6-1.08,5.36-3.65,5.58-8.81.23-5.38-14-5.46-12.79,1.54h0Zm-78.82,17.84c3.88,4.77,7.77,1.07,8.09-2.79.63-7.49-11.98-1.99-8.09,2.79Zm-109.86-135.04c2.79,3.43,7.77,1.07,8.09-2.79.63-7.49-13.07-3.33-8.09,2.79Zm277.17,363.89c-1.57,6.92,5.35,10.3,8.8,7.85,3.44-2.46,4.79-9.22,3.39-11.53-3.52-5.85-10.62-3.23-12.19,3.69h0Zm-22.38,60.81c4.08,7.21,13.12,4.64,13-3.79-.24-16.48-17.08-3.42-13,3.79Zm-218.95-442.41c2.8,3.43,7.77,1.07,8.09-2.79.63-7.49-13.07-3.33-8.09,2.79Zm-79.33-34.86c2.83,5,9.1,3.22,9.02-2.62-.17-11.43-11.84-2.37-9.02,2.62Z"/>
        <path class="cls-2" d="m1346.96,805.86c-12.3-9.21-28.31-14.51-45.11-13.69-1.96.1-3.91.28-5.84.54-14.3,1.93-26.43,8.29-34.8,17.36-8.22,8.91-12.81,20.48-12.2,33.03.06,1.32.19,2.67.37,4.05,1.96,14.53,10.45,27.41,22.57,36.49,12.3,9.21,28.31,14.51,45.1,13.69,1.96-.1,3.91-.28,5.84-.54,14.3-1.93,26.43-8.29,34.8-17.36,8.22-8.91,12.81-20.48,12.2-33.03-.06-1.32-.19-2.67-.38-4.05-1.96-14.53-10.45-27.41-22.57-36.49h0Zm-472.05,105.46c-10.08-1.37-20.02.99-27.92,5.91-7.71,4.8-13.44,12.03-15.35,20.55-.19.87-.34,1.66-.44,2.38-1,7.36,1.12,14.42,5.52,20.09,4.52,5.84,11.43,10.25,19.88,12.14h.02c1.26.28,2.42.49,3.48.64,10.08,1.37,20.02-.99,27.92-5.91,7.71-4.8,13.44-12.03,15.35-20.55.19-.87.34-1.66.44-2.38,1-7.36-1.12-14.42-5.52-20.09-4.52-5.84-11.43-10.25-19.88-12.15h-.02c-1.25-.28-2.42-.49-3.48-.64h0Zm-12.81,33.42c-.4-4.12,1.88-7.82,4.23-7.52,2.36.3,5.18,1.77,6.51,5.92,1.39,4.33-9.99,9.45-10.75,1.61Zm2.93-25.5c.53-2.12,6.94-4.83,8.22.12,2.51,9.69-10.14,7.51-8.22-.12Zm15.41,39.08c4.41,3.31,9.78-.57,9.08-4.07-.7-3.5-5.45-6.87-7.71-6.59-5.72.7-6.54,6.78-1.37,10.66h0Zm-37.66-26.19c.59,5.48,7.09,6.76,9.17,3.86,2.08-2.91,1.3-8.67-.44-10.13-4.41-3.7-9.42-.15-8.73,6.28Zm-2.91,24.09c1.08,1.9,7.97,2.82,7.89-2.3-.15-10.01-11.77-4.55-7.89,2.3Zm14.29,8.86c3.11,3.82,8.64,1.19,9.01-3.1.7-8.33-14.54-3.7-9.01,3.1Zm31.8-32.98c.7,4.07,3.88,7.04,6.08,6.13,2.19-.92,4.52-3.08,4.71-7.43.19-4.54-12.13-6.46-10.79,1.3h0Zm262.28-146.52c-9.56-5.19-21.32-7.26-33-4.96-1.36.27-2.71.59-4.04.97-9.78,2.81-17.6,8.47-22.49,15.64-4.79,7-6.79,15.47-5.1,24.08.18.9.4,1.83.67,2.77,2.84,9.9,10.07,18.01,19.45,23.1,9.56,5.19,21.32,7.26,33,4.96,1.36-.27,2.71-.59,4.04-.97,9.78-2.81,17.59-8.47,22.49-15.64,4.78-7,6.79-15.47,5.1-24.08-.18-.9-.4-1.83-.67-2.77-2.84-9.9-10.07-18.01-19.45-23.1Zm-27.21,37.51c3.98,6.31,11.79.5,11.31-6.81-.79-12.09-17.49-2.99-11.31,6.81Zm15.3-19.72c2.03,2.87,5.61,2.7,8.7-2.15,3.09-4.86,1.29-6.93-1.72-7.79-7.22-2.07-11.31,3.84-6.98,9.95Zm-32.92,32.26c1.45,1.88,8.99,1.77,8.11-3.7-1.73-10.71-13.34-3.04-8.11,3.7Zm-9.33-26.84c-1.81-5.7,4.09-9.8,7.42-7.83,3.33,1.98,5.07,8.04,3.98,10.25-2.77,5.6-9.28,4.26-11.4-2.42Zm37.09,30.31c-1.08-4.35.79-8.68,3.36-8.73,2.57-.05,5.83,1.09,7.91,5.32,2.17,4.42-9.23,11.7-11.28,3.41h0Zm19.27-17.06c1.46,1.87,8.99,1.77,8.11-3.7-1.73-10.71-13.34-3.04-8.11,3.7Zm-34.86-22.68c1.66,2.14,10.27,2.02,9.26-4.23-1.98-12.24-15.24-3.47-9.26,4.23Zm117.61-165.15c-9.52-7.13-21.91-11.22-34.91-10.59-1.51.07-3.02.21-4.52.42-11.03,1.49-20.37,6.38-26.81,13.36-6.28,6.81-9.79,15.65-9.33,25.24.05,1,.15,2.04.29,3.1,1.51,11.16,8.04,21.07,17.38,28.07,9.52,7.13,21.91,11.22,34.91,10.59,1.51-.08,3.02-.21,4.52-.42,11.03-1.49,20.37-6.38,26.81-13.35,6.28-6.81,9.8-15.66,9.33-25.24-.05-1-.14-2.04-.29-3.11-1.51-11.16-8.04-21.07-17.38-28.06h0Zm-36.55,27.67c.84,4.83,4.61,8.35,7.21,7.26,2.6-1.08,5.36-3.65,5.58-8.81.23-5.38-14.38-7.65-12.79,1.54h0Zm136.49,168.31c1.74,3.43,5.64,3.81,9.75-.95,4.12-4.77,2.49-7.29-.63-8.7-7.48-3.38-12.84,2.37-9.13,9.65Zm-37.87,40.04c1.28,2.26,9.44,3.34,9.35-2.72-.17-11.86-13.95-5.4-9.35,2.72Zm9.46,12.91c-3.53,3.82,1.79,8.02,6.63,6.38,8-2.72-1.15-12.31-6.63-6.38Zm-5-44.33c-1.05-6.45,5.97-9.96,9.26-7.29,3.29,2.67,4.21,9.5,2.68,11.72-3.88,5.62-10.71,3.14-11.95-4.43Zm-27.96,31.96c-1.05-6.45,5.97-9.96,9.26-7.29,3.29,2.67,4.21,9.5,2.68,11.72-3.88,5.62-10.71,3.14-11.95-4.43Zm-13.67-25.59c.63-2.51,8.22-5.73,9.74.14,2.98,11.48-12.01,8.9-9.74-.14Zm15.03-13.05c2.35-5.34,9.5-4.08,11.27.71,3.42,9.3-15.45,8.81-11.27-.71Zm54.03,41.6c-.47-4.88,2.23-9.27,5.02-8.92,2.79.36,6.14,2.1,7.72,7.01,1.65,5.13-11.83,11.2-12.74,1.91Zm18.29-21.1c1.28,2.26,9.44,3.34,9.35-2.72-.17-11.86-13.95-5.4-9.35,2.72Zm-32.87-39.67c.96,1.7,7.11,2.51,7.04-2.05-.13-8.93-10.5-4.06-7.04,2.05Zm9.06,36.44c2.11,4.75,8.08,1.54,8.49-3.55.68-8.42-11.76-3.83-8.49,3.55Zm-36.97-37.97c.84,4.83,4.61,8.35,7.21,7.26,2.6-1.08,5.36-3.65,5.58-8.81.23-5.38-14.38-7.65-12.79,1.54h0Zm-76.66-121.34c1.28,2.26,9.45,3.34,9.36-2.72-.17-11.86-13.95-5.39-9.36,2.72Zm5.32-49.5c3.99-5.17,11.36-2.43,11.65,1.79.3,4.22-4.07,9.56-6.73,9.96-6.75,1-9.6-5.69-4.92-11.75Zm-34.79,41.77c-1.05-6.45,5.98-9.96,9.26-7.29,3.29,2.67,4.21,9.5,2.68,11.72-3.88,5.62-10.71,3.14-11.95-4.43Zm-10.91-26.61c.63-2.51,8.22-5.73,9.74.14,2.98,11.48-12.01,8.9-9.74-.14Zm13.54-14.62c2.35-5.34,9.5-4.08,11.27.71,3.42,9.3-15.45,8.81-11.27-.71Zm46.71,27.68c-.47-4.88,2.23-9.27,5.02-8.92,2.79.36,6.14,2.1,7.72,7.01,1.65,5.13-11.83,11.2-12.74,1.91Z"/>
        <path class="cls-5" d="m938.79,961.08c-1.46.68-2.5,1.9-3.01,3.3-.5,1.4-.47,3,.22,4.48l.02.05c.69,1.43,1.89,2.46,3.27,2.96,1.4.5,3,.47,4.47-.22l.57-.27c3.12-1.43,6.36-2.64,9.59-3.45,3.11-.78,6.23-1.18,9.28-1.05,2.41.1,4.79.59,7.08,1.54,2.13.89,4.15,2.17,6.01,3.93,1.18,1.11,2.7,1.64,4.19,1.6,1.49-.05,2.96-.65,4.06-1.79l.04-.04c1.11-1.18,1.64-2.7,1.6-4.19-.05-1.5-.67-2.98-1.85-4.1-2.96-2.81-6.13-4.83-9.43-6.21-3.58-1.5-7.35-2.25-11.2-2.42-3.91-.17-7.87.3-11.77,1.2-4.5,1.05-8.94,2.71-13.16,4.69h0Zm117.14-187.14c-1.7-.59-3.64-.54-5.39.31-4.67,2.26-9.29,4.98-13.48,8.23-3.6,2.79-6.84,5.94-9.47,9.49-2.61,3.52-4.64,7.39-5.89,11.65-1.15,3.9-1.63,8.16-1.28,12.79v.09c.17,1.92,1.09,3.59,2.44,4.76,1.37,1.18,3.19,1.83,5.14,1.69h.07c1.93-.17,3.61-1.08,4.78-2.44,1.18-1.36,1.83-3.19,1.69-5.15-.21-2.81.1-5.43.81-7.87.77-2.6,2.01-4.96,3.59-7.1,2-2.7,4.54-5.11,7.39-7.25,3.12-2.34,6.68-4.39,10.36-6.17,1.75-.85,3-2.34,3.6-4.05.59-1.7.54-3.64-.31-5.39-.85-1.75-2.33-3-4.05-3.6h0Zm204.06-170.59c.67,1.69,1.97,3.12,3.75,3.89,2.27.99,4.1,2.39,5.55,4.1v.02c1.54,1.82,2.64,3.93,3.37,6.22,1,3.15,1.42,6.66,1.39,10.3-.03,3.94-.59,8.04-1.46,11.97-.42,1.91-.03,3.82.95,5.34.97,1.52,2.53,2.68,4.44,3.1,1.91.42,3.82.03,5.34-.95,1.52-.97,2.67-2.53,3.1-4.44,1.15-5.16,1.84-10.63,1.78-16.02-.05-4.7-.66-9.32-2.02-13.59-1.38-4.32-3.46-8.26-6.39-11.56-2.69-3.03-6.12-5.57-10.41-7.44h0c-1.79-.77-3.73-.75-5.4-.09-1.69.66-3.12,1.97-3.89,3.75-.77,1.78-.75,3.71-.09,5.4h0Zm123.77,177.98c-1.26,1.29-2.03,3.08-2,5.05.05,5.32.94,10.14,2.47,14.42,1.65,4.61,4.03,8.61,6.9,11.95,1.66,1.94,3.49,3.65,5.43,5.14,1.98,1.51,4.09,2.78,6.27,3.8,2.2,1.03,4.49,1.8,6.8,2.32,2.3.51,4.63.76,6.93.74,3.26-.03,6.47-.59,9.47-1.71,2.91-1.08,5.66-2.68,8.15-4.81,1.48-1.27,2.3-3.02,2.43-4.83.14-1.81-.42-3.67-1.68-5.14-1.27-1.48-3.02-2.3-4.83-2.43-1.81-.14-3.67.41-5.14,1.68-1.18,1.01-2.54,1.77-4.01,2.28-1.47.51-3.02.77-4.57.78-1.24.01-2.54-.13-3.85-.43-1.27-.29-2.52-.72-3.72-1.27-1.3-.6-2.56-1.37-3.76-2.29-1.14-.87-2.22-1.89-3.21-3.04-1.85-2.15-3.37-4.79-4.41-7.9-.93-2.79-1.47-5.94-1.51-9.43-.03-1.97-.84-3.74-2.13-5-1.29-1.26-3.08-2.03-5.05-2-1.97.03-3.74.84-5,2.14h.01Zm-182.17,135c.1,1.81.89,3.59,2.34,4.88,2.91,2.61,6.19,4.67,9.7,6.23,3.82,1.71,7.93,2.85,12.12,3.47,4.26.64,8.68.75,12.99.39,4.5-.37,8.87-1.24,12.86-2.53,1.84-.59,3.28-1.89,4.11-3.51.83-1.62,1.04-3.54.45-5.39-.59-1.85-1.89-3.28-3.5-4.11-1.62-.83-3.54-1.04-5.38-.45-3.03.98-6.31,1.63-9.65,1.91-3.22.27-6.54.18-9.79-.3-2.79-.42-5.49-1.14-7.96-2.2-2.41-1.03-4.62-2.38-6.51-4.07-1.45-1.3-3.3-1.88-5.1-1.78-1.81.1-3.59.89-4.88,2.34-1.3,1.46-1.89,3.3-1.78,5.1h0Z"/>
        <path class="cls-5" d="m923.7,869.78c.06.06,24.05,28.59,41.65,46,7.27,7.19,13.55,13.24,18.45,17.9-26.47-4.67-48.32-14.8-64.92-30.35-17.83-16.7-29.74-39.79-34.96-69.19,35.55,9.03,60.09,18.73,76.51,33,15.58,13.54,24.08,31.57,28.11,57.56-5.17-4.23-9.82-7.37-15.05-12.36-14.82-14.13-33.74-31.15-49.79-42.57h0Zm80.35,62.5c12.83-21.77,25.4-50.18,29.57-69.3-7.2,15.33-22.42,42.85-34.31,59.56,0-19.92,4.53-42.17,16.58-60.2,8.89-13.3,21.96-24.33,40.46-30.44-5.67,11.49-7.44,23.15-9.22,34.84-3.43,22.56-6.89,45.29-43.08,65.54h0Z"/>
      </g>
    </g>
    <path class="cls-4" d="m490.82,1641.93c-10.45,3.8-20.9,8.12-31.28,12.96v40.36c8.5-4,17-7.85,25.51-11.16v17.51c-8.5,3.4-17,7.32-25.51,11.31v56.13c-6.4,3.06-12.79,6.09-19.11,9.07v-132.83c16.77-7.78,33.54-15.6,50.38-21.69v18.35h0Zm706.63,36.85c-6.32.17-12.64.36-18.95.53v-33.17c-4.06-11.8-8.19-23.66-12.17-35.5-3.98-11.86-8.11-23.79-12.09-35.71,6.4-.04,12.79-.08,19.27-.19,2.34,8.92,4.68,17.87,7.02,26.77,2.34,8.9,4.76,17.82,7.18,26.7,2.18-8.99,4.45-18,6.63-26.96,2.18-8.97,4.45-17.95,6.71-26.94,6.4-.08,12.87-.17,19.35-.27-3.82,11.84-7.64,23.68-11.47,35.54-3.82,11.84-7.65,23.72-11.47,35.62v33.57h0Zm-44.53-103.85v14.65c-6.16.04-12.25.08-18.33.13v90.49c-6.32.11-12.63.21-18.95.3v-90.64c-6.08,0-12.09.04-18.1.04v-14.74c18.41-.04,36.89-.15,55.38-.23h0Zm-81.12,86.89v-22.68c0-1.78-.33-2.96-1.01-3.59-.64-.6-1.88-.92-3.59-.91-4.45.03-8.89.1-13.34.13-11.31.07-17-5.52-17-16.79v-26.17c0-11.16,5.93-16.69,17.78-16.68,6,0,12.09.03,18.17.04,11.86.01,17.78,5.54,17.78,16.6v14.74c-6.4.02-12.79.04-19.11.06v-12.09c0-1.78-.33-2.98-1.01-3.62-.64-.59-1.87-.92-3.59-.91-2.1,0-4.21,0-6.32,0-1.87-.01-3.11.33-3.75.93-.69.66-1.01,1.84-1.01,3.64v21.39c0,1.78.33,2.98,1.01,3.6.65.59,1.87.93,3.75.91,4.29-.04,8.66-.04,13.02-.06,11.54-.07,17.32,5.37,17.32,16.32v27.63c0,11.03-6.01,16.64-17.94,16.83-5.92.09-11.86.19-17.78.27-12.01.17-18.02-5.31-18.02-16.45v-14.71c6.32-.06,12.64-.13,18.95-.17v11.94c0,1.8.32,2.98,1.02,3.62.63.58,1.95.89,3.82.87,2.02-.02,4.13-.05,6.24-.09,1.71-.03,2.94-.36,3.59-.97.68-.64,1.01-1.82,1.01-3.62h0Zm-61.3,20.3c-1.32-7.38-2.65-14.78-3.98-22.18-7.64.13-15.21.23-22.77.34-1.25,7.48-2.42,14.97-3.59,22.43-6.32.15-12.63.32-18.95.51,3.43-18.14,6.94-36.22,10.37-54.27,3.43-18.01,7.02-36.01,10.53-54,8.5,0,17,.02,25.58.04,3.59,17.87,7.33,35.71,10.92,53.51,3.58,17.78,7.33,35.52,11,53.26-6.4.13-12.79.23-19.11.36h0Zm-24.26-36.7c5.85-.08,11.7-.15,17.63-.21-1.56-8.54-3.12-17.11-4.6-25.62-1.48-8.54-2.96-17.13-4.44-25.71-1.48,8.58-2.97,17.17-4.37,25.75-1.4,8.58-2.81,17.21-4.21,25.79h0Zm-27.22-70.49v15.12c-6.08.04-12.17.06-18.25.06v93.68c-6.32.19-12.64.36-18.95.61v-94.12c-6.08.06-12.17.13-18.17.21v-15.37c18.41-.08,36.89-.21,55.38-.19h0Zm-105.84,112.71c-12.32.72-24.65,1.41-36.89,2.35-12.02.92-18.02-4.46-18.02-16.43v-16.3c0-4.59.86-8.27,2.5-11.1,1.63-2.81,4.68-5.77,9.05-8.94,1.4-1.16,2.81-2.32,4.29-3.49-2.65-3.34-4.6-5.98-5.93-7.95-3.59-5.22-5.46-10.19-5.46-14.91v-15.9c0-11.92,6.01-18.05,18.02-18.44,5.62-.18,11.31-.42,17-.53,11.7-.23,17.63,5.58,17.63,17.27v15.05c0,6.15-1.09,10.97-3.35,14.46-2.26,3.89-7.02,8.29-14.12,13.34,6.16,7.63,12.32,15.24,18.56,22.81v-13.3c5.07-.21,10.14-.44,15.21-.66v24.12c0,2.45-.31,4.78-1.01,6.92,4.53,5.35,9.05,10.74,13.57,16.07-6.55.29-13.02.59-19.5,1.01-1.87-2.11-3.74-4.23-5.62-6.36-1.87.47-3.83.77-5.93.89h0Zm-31.82-91.42v14.89c0,3.57,2.03,7.72,5.93,12.45,3.98-3.05,6.62-5.44,7.88-7.23,1.23-1.76,1.87-4.12,1.87-7.11v-13.55c0-1.9-.33-3.16-.94-3.83-.56-.62-1.79-.95-3.66-.87-2.18.09-4.37.18-6.47.25-1.79.07-3.04.41-3.67,1.1-.62.68-.94,1.98-.94,3.89h0Zm-.16,78.31c8.73-.52,17.47-.97,26.21-1.46-7.64-8.96-15.29-17.99-22.93-27.02-3.9,2.83-6.22,4.96-6.94,6.3-.75,1.39-1.09,3.28-1.09,5.66v12.03c0,1.92.33,3.13,1.01,3.76.64.59,1.88.83,3.74.72h0Zm-82.28-94.51c6.32-.32,12.64-.66,19.03-.99v116.17c-6.4.72-12.71,1.44-19.03,2.16v-50.03c-7.17.66-14.27,1.37-21.37,2.07v50.38c-6.32.93-12.64,1.84-18.95,2.77v-119.5c6.32-.49,12.64-.99,18.95-1.48v51.33c7.1-.66,14.19-1.33,21.37-1.92v-50.98h0Zm-73.16,105.41v-25.92c0-2.05-.32-3.35-1.01-3.97-.64-.58-1.87-.76-3.59-.49-4.44.7-8.9,1.36-13.34,2.07-11.38,1.82-17-3.72-17-16.79v-30.34c0-12.94,5.93-20.36,17.78-21.73,6-.69,12.09-1.35,18.17-2.03,11.86-1.33,17.78,4.29,17.78,16.87v16.81c-6.4.78-12.79,1.57-19.11,2.39v-13.83c0-2.05-.32-3.35-1.01-4.02-.63-.6-1.87-.84-3.59-.61-2.11.28-4.22.53-6.32.78-1.87.23-3.11.75-3.74,1.52-.69.83-1.01,2.24-1.01,4.31v24.63c0,2.07.34,3.39,1.01,4.02.65.6,1.87.8,3.74.53,4.29-.62,8.65-1.3,13.02-1.88,11.54-1.53,17.31,4,17.31,16.47v31.48c0,12.6-6.03,19.63-17.94,21.59-6.03.99-11.94,2.28-17.86,3.4-11.93,2.26-17.94-3.02-17.94-15.94v-17.04c6.32-1.16,12.63-2.24,18.95-3.28v13.76c0,2.05.33,3.38,1.01,4,.64.57,1.95.71,3.74.38,2.1-.39,4.21-.75,6.32-1.12,1.71-.3,2.94-.91,3.59-1.71.67-.83,1.01-2.26,1.01-4.31h0Zm-75.5,20.34c10.53-2.45,21.06-4.88,31.67-7.15v17.27c-16.92,3.91-33.85,7.99-50.77,12.14v-126.96c16.46-3.42,32.92-6.3,49.45-8.88v17.32c-10.14,1.65-20.28,3.36-30.34,5.22v35.01c8.5-1.73,17-3.38,25.58-5.01v17.53c-8.58,1.73-17.08,3.49-25.58,5.28v38.22h0Zm-71.05-12.26v50.75c-6.32,2.41-12.63,4.8-18.95,7.23v-131.25c12.71-4.46,25.43-7.95,38.22-11.46,12.01-3.3,18.02,2.09,18.02,15.51v38.02c0,11.12-4.06,18.69-12.09,22.92,2.89,7.65,5.77,15.27,8.66,22.9,2.88,7.61,5.77,15.2,8.66,22.75-6.86,2.07-13.65,4.14-20.43,6.22-2.65-7.57-5.39-15.14-7.96-22.75-2.58-7.63-5.3-15.27-7.88-22.9-2.1.66-4.21,1.37-6.24,2.07h0Zm0-61.27v43.72c4.53-1.46,9.05-2.79,13.65-4.14,1.79-.53,2.99-1.21,3.67-2.18.65-.93.94-2.5.94-4.69v-32.35c0-2.2-.29-3.61-.94-4.15-.67-.56-1.88-.61-3.67-.1-4.61,1.29-9.12,2.58-13.65,3.89h0Z"/>
    <path class="cls-13" d="m316.82,813.89l55.23-3.94-29.73,227.51-55.23,3.94,11.76-90.01-40.46,2.89-11.76,90.01-55.23,3.94,29.73-227.51,55.23-3.94-12.18,93.2,40.46-2.89,12.18-93.2h0Zm370.88-26.46l-5.79,44.3-39.82,2.84-23.94,183.21-56.2,4.01,23.94-183.21-39.5,2.82,5.79-44.3,135.51-9.67h0Zm-243.72,17.39l47.53-3.39c31.47-2.24,45.29,11.28,41.46,40.57l-18.25,139.62c-3.83,29.29-21.48,45.06-52.94,47.31l-47.53,3.39c-31.47,2.25-45.29-11.28-41.46-40.57l18.25-139.62c3.83-29.29,21.48-45.06,52.94-47.31h0Zm15.61,172.66l16.12-123.32c.68-5.19-1.66-7.6-7.01-7.22l-13.49.96c-5.35.38-8.37,3.17-9.05,8.37l-16.12,123.32c-.68,5.2,1.66,7.61,7.01,7.22l13.49-.96c5.35-.38,8.37-3.17,9.05-8.37h0Z"/>
  </g>
</svg>