<?xml version="1.0" encoding="utf-8"?>
<!-- Generator: Adobe Illustrator 27.3.1, SVG Export Plug-In . SVG Version: 6.00 Build 0)  -->
<svg version="1.1" id="Layer_1" xmlns:xodm="http://www.corel.com/coreldraw/odm/2003"
	 xmlns="http://www.w3.org/2000/svg" xmlns:xlink="http://www.w3.org/1999/xlink" x="0px" y="0px" viewBox="0 0 3000 3000"
	 style="enable-background:new 0 0 3000 3000;" xml:space="preserve">
<style type="text/css">
	.st0{fill-rule:evenodd;clip-rule:evenodd;fill:#F2B326;}
	.st1{fill:#F18B27;}
	.st2{fill-rule:evenodd;clip-rule:evenodd;fill:#8C2426;}
	.st3{fill:#C25D0B;}
	.st4{fill:#E09E10;}
	.st5{fill:#FEDD6B;}
	.st6{fill:#FEB668;}
	.st7{fill-rule:evenodd;clip-rule:evenodd;fill:#E2C59B;}
	.st8{fill-rule:evenodd;clip-rule:evenodd;fill:#AF5023;}
	.st9{fill-rule:evenodd;clip-rule:evenodd;fill:#FEDD6B;}
	.st10{fill-rule:evenodd;clip-rule:evenodd;fill:#AC3537;}
	.st11{fill-rule:evenodd;clip-rule:evenodd;fill:#7A994C;}
</style>
<g id="_1230049076192">
	<path class="st0" d="M1019.4,2415.7c3.8,39.1,14,65.5-57.4,46.4c-138.8-37.1-183.3-266-10.3-348.1c60.1-28.5,134-40.3,197.6-45.3
		c427.8-33.2,1218.5,83.6,1300.1-237.5c-85.6,93.5-210.8,67.9-169.9-66.6c-29.4,54.1-66.9,144.2-139.7,154.6
		c-32.4,4.6-62.6-7.2-79.8-35.9c-6,7.7-12.4,15.1-19.3,22c-21.2,21.6-49.2,34.9-82.3,39.6c-42,6-82.8-12.6-107.7-35.6
		c-110.1,134.8-157.8,11.3-100.4-43.1c18.6-17.6,46.4-27.5,77.1-23.9c34.7-37.1,80.1-93.5,100.3-138.9
		c-42.2,25.4-102.8,36.4-149.3,19.5c-32.5,94.4-52.6,255-188.9,274.3c-42,6-82.8-12.6-107.7-35.6c-110.1,134.8-157.8,11.3-100.4-43
		c18.6-17.6,46.4-27.5,77.1-23.9c34.7-37.1,80.1-93.5,100.3-138.9c-42.2,25.4-102.8,36.4-149.3,19.5
		c-22.9,66.4-69.7,257.4-159.8,270.2c-25.4,3.6-47.8-2.5-65.6-19.4c-51.2-48.4-31-105.9-13.4-164.4c17.6-55.6,36.2-111.2,55.7-166.3
		c19.4,1.2,44.4,10.1,62.1,24c48.5,38.2-6.9,126.9-22.5,178.4c-18.5,60.9-5.6,91,44.1,22.6c35.1-48.3,50-107.3,71-161.9
		c-37.7-36-27-74.4-3.8-93c25.1-20.1,64.7-18,69.6,11.5c0.6,3.5,0.3,6.4-1.3,10.2c26.5,16.6,79.8,19.5,110.3,15.2
		c11-1.6,21.9-4.5,32.5-8.2c10.8-30.2,38.1-51.3,64.6-55c16.9-2.4,44.5,5.9,56.5,19.2c-20.5,107.3-106.8,177.7-183.2,249.6
		c156.7,33,183.4-97,223.7-201.8c-37.7-36-27-74.4-3.8-93c25.1-20.1,64.7-18,69.6,11.5c0.6,3.5,0.3,6.4-1.3,10.2
		c26.5,16.6,79.8,19.5,110.3,15.2c11-1.6,21.9-4.5,32.5-8.2c10.8-30.2,38.1-51.3,64.6-55c16.9-2.4,44.5,5.9,56.5,19.2
		c-20.5,107.3-106.8,177.7-183.2,249.6c25.1,5.3,64.6,2.3,90.2-1.3c22.9-3.2,42.5-18.9,60.3-41.5c1.6-27.1,9.7-56.1,24.6-86.7
		c36.8-73.3,112-164.3,205.3-177.5c33.1-4.7,45.2,10.8,48.4,29.7c2.4,14-0.6,29.5-5.3,38.7c34,0.2,55.5,15.8,59.1,37.5
		c1.2,7-2.6,21.9-10.8,43.8c-52.3,153,49.4,116.5,63.4,29.7c5-31,19.7-27,31.8-12.2c14.7,18,22.7,50.3,26.1,82.3
		c8.3,77.7-12.4,139.6-51.5,189.1c-150.4,190.2-559,257.4-904.9,271.9C1230.6,2271.8,1005.9,2278.7,1019.4,2415.7L1019.4,2415.7z
		 M804.2,2076.6c111.2,36.2,251.9-47.4,305.7-135.9c104.2-171.3,5.6-369.7-251.5-333.2c-382.5,54.3-441.7,357.2-218.8,339.2
		c26.3-2.1,20.4-12.1,13.4-35.2c-36.2-119.6,89.5-236,208.9-253c274.2-38.9,201.9,344.8-42.3,360.5c16.7-66.1,39.5-244.3,115-271.5
		c8.9-3.2,25.5-12.6,8.9-22.1c-64.8-37.1-131.1-4-168.9,45.4c-52.8,68.9-75.3,224.4-108.8,316.9C613.3,2233,498.7,2207,522.7,2243.2
		c29.1,44,90.1,57.1,142.4,43.4C759.5,2261.9,782.2,2151.6,804.2,2076.6L804.2,2076.6z M2171.6,1737.7
		c13.8-39,56.6-140.6,106.2-147.7c7-0.3,11.6,3.4,13.1,12.5c2.7,16.1-2.4,41.9-14.7,76.6c-13,35.5-29.6,68-48.9,98.7
		C2166.7,1874.1,2141.4,1825.5,2171.6,1737.7L2171.6,1737.7z"/>
	<g>
		<g>
			<path class="st1" d="M1800,531.5c-46.5,147.8,122.7,159.9,200.3,264.3c-0.2-53.8,24.2-116.9,85.7-153.1
				c-41,86.9-39.4,163,67.2,226.6c140.7,84,140.2,185,142.6,246.4c4.2,104.5,66.9,57.6,63.4-42.8c48.6,125.6-46.9,257.6-144.9,323.8
				c36.7-59.7,53.8-150.3,32.2-219c0,0-2.1,54.2-82.4,83.5c77.5-174.7,31.2-245.5-28.3-320.8c2.9,74.6-11,116.7-55.2,139.9
				c-12.5-204-198.7-142.4-226.5-318.3c-36.4,41.9-29,74.7-22.9,101c11.4,49.1-39.7,69.5-70.1,28.8c-22.3-29.8-45.8-72.5-116.7-72.3
				c48.7,58.3,38,172.8-3.7,237.5c-71.6,111.2-231.3,116.3-238.7-42.8c-52.9,80.4-76.8,112.9,15.2,280
				c-82.5-22.1-110.9-56.9-110.9-56.9s-11.8,62.7,12.9,125.7c-178.2-66.7-123.5-238-123.5-238s10.2,92.9,56.4,71.5
				c50.9-23.6-63-152,131.6-292.8c100.8-73,95.9-148.9,47.7-231.8c99.5,47.3,116,166.5,84.5,220.2c-111.6,190,91.9,194.3,101,39
				c2.1-35.2-16.6-85.5-36.6-135.5c-23.4-58.3-24.4-130.1,62-192.2c-54.6,164.3,140.7,241,123.9,155.5
				C1735.5,686.5,1684.6,599.4,1800,531.5L1800,531.5z M2171.5,646.2c-103.9,113.1,54.7,132.9,50,229.7
				C2258.5,776.4,2164.1,737.8,2171.5,646.2z M1174.6,908.6c0,0,66.4,87.1,11.5,166.3c-54.9,79.2-26,126-26,126
				s-59.2-84.3-38.7-151.8C1141.9,981.7,1185.5,975.7,1174.6,908.6L1174.6,908.6z"/>
			<path class="st0" d="M2262.1,1142.9c0,0-22.3,31.7-58.7,64.9c60.8-231.7-94.7-311.8-94.7-311.8s22.5,73.1-11.3,150.7
				c-36.2-194.2-208.7-100.6-247.2-321.3c0,0-38.4,79.2-28.4,124.4c10,45.2-21.8,90.5-66.1,21c-44.3-69.5-125.1-65.4-125.1-65.4
				s49.8,87.2,32.6,165.1c-48.5,219.8-300.6,159.1-238-4.1c-125.3,71.7-114.8,217.4-29.1,309.5c-28.8,1.3-80.3-11-100.2-83.6
				c-14.1,52.7-34.2,140.8,23.3,170.9c-5.5-30.5-10.2-65.9-5.6-82.8c54.9,25.6,74.8,22.3,142.2,8.1
				c-44.6-35.5-113.4-117.9-64.7-218.8c-7.8,106.9,144.5,100.3,214.3,51.1c80.8-57.1,133.4-169.9,84.1-265.3
				c46.7,17.7,45.7,51.8,74.3,71.4c55.1,37.8,102.5-8.8,92.4-83.7c45.6,157.7,187.2,43.9,218.2,286.4c0,0,59.1-26.6,74.5-107.6
				c23.5,32.2,30.2,125.5,1.5,255.5c28.4-14.7,60.7-26.7,89.3-52.9c12.3,72.6-4.9,139.9-25.3,172.4
				C2278.1,1322.6,2294.9,1248.5,2262.1,1142.9L2262.1,1142.9z"/>
		</g>
		<g>
			<path class="st2" d="M2202.4,1471.8c3.4,90.5-115,87.5-176.2,88.1c-16,0.2-31.3,0.3-43.3,0.7c-12.7,0.4-23.5,0.7-34.3,1
				c-52.3,1.4-104.6,2.7-199.5,9.9c-47.3,3.6-92.6,9.2-135.9,14.5c-63.7,7.9-123.3,15.3-177.7,14.9c-30.8-0.2-61.2-1-88.1-2.1
				c-26.9-1-50.7-2.3-67.6-3.3c-37.6-2.2-65.8-5.5-79.1-15.8c-16.7-12.9-13.5-31.8,17.4-62.4c9-8.9,19.4-19.1,31.3-30
				c11.5-10.6,23.9-21.3,36.6-31.3c15.4-12,43.3-34.6,70.4-57.5c19.2-16.2,37.8-32.4,50.5-44.4c16.3-15.5,36.9-30,57.1-44.2
				c24-16.9,47.5-33.4,61.4-50.1c6.9-8.2,15.9-19.3,24.7-29.9c20.9-25.5,39.9-48.6,58.2-67.6c39.6-41.2,106.9-95.4,126-110.6
				c-16.9-50.4,16.4-92.5,67.9-89.1c29.5,2,53.4,10.7,78.6,23.8c46.6-0.5,118.3,81.6,150.8,125c15.2,7.7,19.3,14.1,29.6,28.1
				c17.6,23.8,36.7,55.8,54.9,90.3c25.7,48.6,49.7,102.5,65,145.2C2192.5,1407.2,2201.2,1438.1,2202.4,1471.8L2202.4,1471.8z"/>
			<path class="st1" d="M2051.6,1458.2c3.7,16.7-4.9,25.1-19.3,29.1c-10.6,2.9-24.4,2.9-37.6,2.6c-5.8-0.1-11.7-0.1-17.9,0
				c-21.2,0.2-45.3,0.4-73.8-6c-17.5-3.9-37.2,5.3-54.3,13.4c-15.2,7.2-28.8,13.6-41.1,11.5c-2.2-0.4-5.1-0.9-7.9-1.5
				c-15.4-3-25.2-4.9-62.8,6.2c-23.1,6.8-46.2,13.5-67.2,18c-21.8,4.6-41.9,7-58.5,5c-8.6-1-16.4-2.6-24-4.2
				c-19.4-4-37.5-7.7-61.2,1.1l-1,0.4c-36,13.5-50.1,18.7-91.7,15c-18.6-1.7-32.8,3.5-45.4,8.1c-14,5.1-26.4,9.6-42.2,6.2
				c-16-3.5-47.7-8.2-80.5-5.8c-16.8,1.2-33.9,4.4-49.1,10.5c11.7,5.4,34.7,7.6,64.6,9.4c16.7,1,40.2,2.2,67.3,3.3
				c27.1,1.1,57.5,1.9,87.4,2.1c53.5,0.3,112.4-7,175.4-14.7c43.9-5.4,89.8-11.1,136.8-14.6c95.4-7.2,147.9-8.6,200.4-9.9
				c11.7-0.3,23.5-0.6,34.2-0.9c14.2-0.4,28.6-0.6,43.7-0.7c48.9-0.5,161.1,7.2,158.3-69.1
				C2179.8,1354.2,2034.9,1383.2,2051.6,1458.2L2051.6,1458.2z M2137.8,1512.6c21.7-17.6,21.3-67.8,3.3-87.5
				C2169.4,1439.5,2181.4,1496.2,2137.8,1512.6z"/>
			<path class="st3" d="M1216.2,1567.8c11.7,5.4,34.7,7.6,64.6,9.4c16.7,1,40.2,2.2,67.3,3.3c27.1,1.1,57.5,1.9,87.4,2.1
				c53.5,0.3,112.4-7,175.4-14.7c43.9-5.4,89.8-11.1,136.8-14.6c95.4-7.2,147.9-8.6,200.4-9.9c11.7-0.3,23.5-0.6,34.2-0.9
				c14.2-0.4,28.6-0.6,43.7-0.7c48.9-0.5,161.1,7.2,158.3-69.1c-1.7-44.7-23.4-68.3-48.9-76.4c15.1,12.4,22,28.8,22.8,45.6
				c13.8,22.8,12.8,58.5-20.4,71c11.1-9,16.4-26.5,16.5-44.2c-4,12.2-11,23.4-20,32.1c-12.1,11.7-42.8,13.3-51.8,15.4
				c-21.7,5.1-68.6,1.9-88.3-0.7c-55.3-7.2-84.8,2.3-126.2,7.2c-15.3,1.8-39,8.2-57,2.5c-28.5-9.1-58.3,7.8-111.1,20.1
				c-52.8,12.3-85.3,1.5-125.8,3.8c-19,1.1-41.3,6.6-65.6,10.6c-18.8,3.1-52.7,5.6-82.1,6.4c-13.6,0.4-43.2,6.5-55.4,6.5
				C1298.4,1572.4,1236.8,1573.2,1216.2,1567.8L1216.2,1567.8z"/>
			<path class="st0" d="M2022.8,1437.2c-10.2-16.9-13.9-30-18.1-45.1c-3-10.7-6.3-22.4-12.5-37.1c-11.2-26.5-20.2-37.7-37.6-59.3
				c-9-11.2-20.2-25-35.1-45.3c-18.5-25-27.7-45-35.6-62.3c-7-15.3-13-28.2-24.3-40.7c-2.4-2.1-4.6-4.3-6.5-6.6
				c-4.6-4.2-9.9-8.4-16.3-12.7c-11.7-7.8-21.9-15.1-31.1-21.8c-13.1-9.4-24-17.2-35.5-23.5c-9.6-5.2-19.1-12.1-24.9-16.6
				c-19.5,15.5-85.2,68.5-123.7,108.5c-17.5,18.2-36.3,41.1-57.2,66.6c-7.1,8.7-14.5,17.7-24.8,30c-15.6,18.7-40,35.8-65,53.4
				c-19.6,13.8-39.6,27.8-55,42.5c-13.1,12.5-31.9,28.8-51.3,45.2c-26.5,22.4-54.9,45.2-70.9,57.8c-12.3,9.7-24.3,20.1-35.5,30.4
				c-10.8,10-21.4,20.3-30.8,29.5c-7.7,7.6-13.1,13.8-16.6,18.8c15.8-5.7,32.8-8.6,49.6-9.9c35-2.6,68.7,2.4,85.8,6.1
				c10.6,2.3,20.7-1.4,32.1-5.6c14.5-5.3,30.6-11.2,53.3-9.1c37.5,3.4,50.5-1.5,83.7-13.9l1-0.4c28.5-10.7,49.1-6.4,71.1-1.9
				c7.3,1.5,14.7,3,22.5,4c14.3,1.7,32.5-0.5,52.6-4.8c20.9-4.4,43.4-11,65.8-17.6c42-12.4,53.5-10.2,71.5-6.7
				c2.1,0.4,4.2,0.8,7.5,1.4c6.6,1.1,17.7-4.1,30.2-10c19.8-9.3,42.5-20,66.1-14.7c26.7,6,49.5,5.8,69.6,5.7
				c6.4-0.1,12.6-0.1,18.4,0c11.8,0.3,21.9,0,30.1-2.2C2035.7,1466.5,2026.7,1443.7,2022.8,1437.2L2022.8,1437.2z"/>
			<path class="st4" d="M2005.3,1394.3c-28.5,5.1-58.8,9.5-76.6,8.7c-36.9-1.7-85.3,37.1-123,30.3c-37.7-6.8-81.3,7.7-126.2,21.2
				c-45,13.5-75.7,16.8-121.8,23.6c-46.1,6.9-49.2-1.1-94.2,10.6c-45,11.7-92.8,16-122,12.9c-17.5-1.9-52.5,1.3-86.3,5.3
				c-8.5,8-16.7,16-24.1,23.4c-7.7,7.6-13.1,13.8-16.6,18.8c15.8-5.7,32.8-8.6,49.6-9.9c35-2.6,68.7,2.4,85.8,6.1
				c10.6,2.3,20.7-1.4,32.1-5.6c14.5-5.3,30.6-11.2,53.3-9.1c37.5,3.4,50.5-1.5,83.7-13.9l1-0.4c28.5-10.7,49.1-6.4,71.1-1.9
				c7.3,1.5,14.7,3,22.5,4c14.3,1.7,32.5-0.5,52.6-4.8c20.9-4.4,43.4-11,65.8-17.6c42-12.4,53.5-10.2,71.5-6.7
				c2.1,0.4,4.2,0.8,7.5,1.4c6.6,1.1,17.7-4.1,30.2-10c19.8-9.3,42.5-20,66.1-14.7c26.7,6,49.5,5.8,69.6,5.7
				c6.4-0.1,12.6-0.1,18.4,0c11.8,0.3,21.9,0,30.1-2.2c10.4-2.9,1.4-25.7-2.5-32.2C2013.1,1421.2,2009.3,1408.5,2005.3,1394.3
				L2005.3,1394.3z"/>
			<path class="st5" d="M1772,1084c-0.7-0.4-1.3-0.7-2-1.1c-9.6-5.2-19.1-12.1-24.9-16.6c-19.5,15.5-85.2,68.5-123.7,108.5
				c-17.5,18.2-36.3,41.1-57.2,66.6c-7.1,8.7-14.5,17.7-24.8,30c-15.6,18.7-40,35.8-65,53.4c-19.6,13.8-39.6,27.8-55,42.5
				c-13.1,12.5-31.9,28.8-51.3,45.2c-11.1,9.4-22.5,18.8-33.2,27.5c9.7-3.4,19.4-7,26.9-11.6c14.6-9.1,20.9-12,45.5-30.8l0.1-0.1
				c8.2-6.6,17.9-13.2,30.7-20.3c60.6-33.2,88.9-57.7,115.2-80.4c26.3-22.7,27.9-38.5,63.8-74.4c35.9-35.9,26.6-40.9,69.9-69.3
				C1715.2,1134.7,1747.3,1105,1772,1084L1772,1084z"/>
			<path class="st1" d="M1752.7,1049.1c4.2,3.4,15,11.8,26,17.7c12.5,6.8,23.9,15,37.5,24.8c7.1,5.1,14.9,10.7,24.1,17
				c0.7-19.8,17.3-35.1,40.2-35.7c-24.3,11.1-29.5,36.2-14.8,54.7c17.9,16.4,25.5,32.9,34.7,52.9c7.5,16.2,16.1,35,33.2,58.3
				c13.3-33.8,54.7-39.1,81.9-27.7c-51.6-2.7-83.9,26.9-46.7,73.2c18.4,22.8,27.8,34.5,40.1,63.6c6.8,16,10.2,28.2,13.3,39.3
				c3.4,12,6.3,22.6,13.1,35.1c16.8-47.4,91.2-64.2,132.2-30.5c-1.2-3.5-2.4-7.1-3.7-10.7c-9.1-25.6-21.5-55.3-35.5-85.5
				c-16.3-23.2-56.2-14.8-71.2,5.5c5.5-25.6,33.6-37.8,58.7-31.7c-5.2-10.5-10.5-21-15.9-31.2c-18.2-34.4-37.1-66.1-54.3-89.1
				c-27.1-36.4-61.3-46.3-101.4-12.2c8.4-20.5,30.7-33.1,54.9-33.2c-40.6-55.6-77.2-83.8-111.3-98.1c-34.3-7.9-65.1,4.3-64,32
				c-7.8-23.1,5.6-38.6,25.7-44.5c-16.3-7.2-29.7-11.3-48.6-12.4C1757.4,977.8,1739.2,1012.7,1752.7,1049.1L1752.7,1049.1z"/>
			<path class="st6" d="M2126.7,1374.9c14.9,1.9,29.2,7.4,40.8,16.9c-1.2-3.5-2.4-7.1-3.7-10.7c-9.1-25.6-21.5-55.3-35.5-85.5
				c-8.8-12.6-24.7-15.9-39.7-13C2104.6,1316.2,2117.5,1348.1,2126.7,1374.9L2126.7,1374.9z M2083.2,1271.5
				c10-3.9,21.6-4.8,32.6-2.1c-5.2-10.5-10.5-21-15.9-31.2c-18.2-34.4-37.1-66.1-54.3-89.1c-17.2-23.1-37.2-35.5-59.8-32.8
				C2024.4,1163.4,2057.5,1219.1,2083.2,1271.5z M1978.1,1107.1c6.6-2.2,13.8-3.4,21.1-3.4c-40.6-55.6-77.2-83.8-111.3-98.1
				c-16.6-3.8-32.4-3-44.1,2.1c23.8,8.7,48.1,21.4,71.9,39.4C1937.6,1063.8,1958.5,1084.3,1978.1,1107.1L1978.1,1107.1z
				 M1830.9,1003.4c4.8-4.6,11.3-8.1,18.6-10.2c-16.3-7.2-29.7-11.3-48.6-12.4c-15.9-1.1-28.4,2.9-37.3,10.2
				C1784.5,992.3,1807.3,996,1830.9,1003.4L1830.9,1003.4z"/>
			<path class="st3" d="M1752.7,1049.1c4.2,3.4,15,11.8,26,17.7c12.5,6.8,23.9,15,37.5,24.8c7.1,5.1,14.9,10.7,24.1,17
				c0.3-9.2,4.1-17.5,10.4-23.7c-31.4-21.7-56-26.5-83.2-44.1c-10.6-6.8-16.1-14.3-18.8-21.1
				C1747.6,1028.9,1748.9,1039,1752.7,1049.1L1752.7,1049.1z M1860.4,1092c-5.2,11.3-3.5,24.6,5.3,35.6
				c17.9,16.4,25.5,32.9,34.7,52.9c7.5,16.2,16.1,35,33.2,58.3c4.2-10.8,11.3-18.6,19.9-24c-14.4-19.8-26.1-39.8-34.8-53.7
				C1903.8,1137.7,1890.5,1115.3,1860.4,1092z M1961.8,1225.9c-13,12.8-13.4,33.1,7,58.3c18.4,22.8,27.8,34.5,40.1,63.6
				c6.8,16,10.2,28.2,13.3,39.3c3.4,12,6.3,22.6,13.1,35.1c4.6-12.9,13.4-23.5,24.7-31.5c-4.3-9.7-8.6-20.9-11.7-32.4
				c-9.3-34.2-22.8-72.2-55.8-100C1981.3,1249,1971.1,1237.7,1961.8,1225.9L1961.8,1225.9z"/>
			<path class="st7" d="M1600,1455.8c-4.7,6.2-20.3-0.2-14.2-18.6c6.1-18.4,35.2-35.9,69.1-20.7c33.9,15.2,26,46.8,12.2,52
				c-13.8,5.2-15.8-5.7-15-12.2c1.2-9.9-17.8-8.3-12.7,7.7c3.6,11.4,6.6,23.4-10.9,23.7c-11.8,0.2-25.7-4.8-23.9-13.5
				c1.3-6.2,7.9-11.6,11.9-17.3c8.6-12.5-4.9-19.3-11.9-10.1C1603,1449,1602.2,1452.9,1600,1455.8L1600,1455.8z M1843.8,1244.5
				c4.9-3.2,14.3,5.2,5.4,16.8c-8.9,11.5-34,16.7-54.2-2.6c-20.3-19.2-6.8-39.8,4.4-40c11.1-0.2,9.8,8,7.6,12.4
				c-3.3,6.7,10.6,10.4,11-2.3c0.3-9,1.1-18.3,13.6-14.1c8.4,2.8,17.1,9.8,13.6,15.6c-2.4,4.1-8.5,6.2-12.8,9.3
				c-9.3,6.7-1.3,15,5.9,10.1C1839.9,1248.6,1841.5,1246,1843.8,1244.5L1843.8,1244.5z M1645.9,1249.4c6,2,13.4-9.5,0.9-18.9
				c-12.5-9.4-40-7.6-55.5,18.1c-15.5,25.7,4.3,43.2,15.9,40.2c11.6-2.9,7.9-11.1,4.4-15c-5.4-6,8-13.8,12-0.8
				c2.8,9.3,6.4,18.6,18.2,10.8c7.9-5.3,14.9-15,9.6-20c-3.7-3.5-10.6-4-15.9-6c-11.5-4.4-5.6-15.1,3.2-12.2
				C1640.7,1246.3,1643.1,1248.5,1645.9,1249.4z"/>
			<path class="st8" d="M1270.4,1515c0,0,3.7,8.4,7.7,8.3c6.8-0.1,9.9-1.4,16.4-2.7c8.3-1.8,19.6-4.5,23.7-12.1
				c1.1-1.9-8.7-11.2-13.1-13.5C1299.4,1498.5,1272.1,1509.5,1270.4,1515L1270.4,1515z M1594.2,1493.6c0.3-0.9,0.4-3.4,0.5-5.3
				c-6.1-4.7-25.1-18.5-31.2-15.1c-3.7,2.1-6.6,6.1-8.5,10.3c-1.9,4.3-2.7,8.4-2,10.5c1.7,1.1,10.9,1.3,20.2,1.1
				C1582.6,1495,1591.6,1494.3,1594.2,1493.6L1594.2,1493.6z M1919.2,1404.8c0,0-4.9,10.5-1.6,14.2c3.3,3.7,5.8,7,13.7,10.2
				c7.8,3.2,10.8,4.8,12.1,12.2c1.3,7.4,19.5,2.3,22.2,1.7c2.7-0.6,2.7-15.5,1.4-21.5c-1.3-6.1-7.4-9.1-16.4-9.8
				c-9-0.7-17.1-5.5-22.2-7.1C1923.2,1403.2,1919.2,1404.8,1919.2,1404.8L1919.2,1404.8z M1681.1,1408.9c0,0,3.7,8.4,7.7,8.3
				c6.8-0.1,9.9-1.4,16.4-2.7c8.3-1.8,19.6-4.5,23.7-12.1c1.1-1.9-8.7-11.2-13.1-13.5C1710,1392.5,1682.8,1403.4,1681.1,1408.9
				L1681.1,1408.9z M1739.9,1255.5c0,0,8.9,10.4,6.3,15.6c-2.6,5.3-4.5,9.8-12.4,15.9c-7.9,6.1-10.7,8.8-9.9,17.7
				c0.8,8.9-21.5,8.7-24.8,8.9c-3.3,0.2-7.9-16.8-8.3-24.1c-0.4-7.3,5.5-12.7,15.6-16.3c10.1-3.6,17.7-11.6,23.1-15.1
				C1734.9,1254.8,1739.9,1255.5,1739.9,1255.5L1739.9,1255.5z M1458,1366.6c0,0-3-10.2,0.5-13.1c14-11.6,30.5-19.2,47-13
				c2.4,0.9,0.2,12.1-1.9,17.4c-2.1,5.3-7.9,7.2-16.2,6.6c-8.3-0.7-16.3,2.6-21.1,3.4C1461.4,1368.7,1458,1366.6,1458,1366.6
				L1458,1366.6z"/>
			<path class="st9" d="M1927.7,1306.5c1.8,3.1,13.1,4.6,13-3.8C1940.4,1286.2,1921.3,1295.2,1927.7,1306.5z M1335.9,1525.7
				c3.1,5.6,10.1,3.6,10-2.9C1345.7,1510.1,1332.7,1520.2,1335.9,1525.7z M1698.7,1481.6c2.9,5.6,11.5,1.6,12.2-4.5
				C1712.2,1467,1694.3,1472.8,1698.7,1481.6z M1523.6,1496.3c1.4,2.4,10.1,3.6,10-2.9C1533.4,1480.7,1518.7,1487.6,1523.6,1496.3z
				 M1416.2,1508.7c-3.5,3.8,1.8,8,6.6,6.4C1430.9,1512.4,1421.7,1502.8,1416.2,1508.7z M1986,1454.9c1.8,3.1,13.1,4.6,13-3.8
				C1998.7,1434.7,1979.6,1443.6,1986,1454.9z M1832.2,1461c2.9,5.6,11.5,1.6,12.2-4.5C1845.6,1446.3,1827.7,1452.2,1832.2,1461z
				 M1890.6,1436.8c0.8,4.8,4.6,8.3,7.2,7.3c2.6-1.1,5.4-3.7,5.6-8.8C1903.6,1429.9,1889,1427.6,1890.6,1436.8L1890.6,1436.8z
				 M1975.8,1401.7c1.7,3.4,5.6,3.8,9.8-1c4.1-4.8,2.5-7.3-0.6-8.7C1977.5,1388.7,1972.1,1394.4,1975.8,1401.7L1975.8,1401.7z
				 M1766.5,1276.1c0.7,6.5,8.4,8,10.9,4.6c2.5-3.4,1.5-10.3-0.5-12C1771.6,1264.3,1765.7,1268.5,1766.5,1276.1L1766.5,1276.1z
				 M1689.5,1380.1c2.9,5.6,11.5,1.6,12.2-4.5C1702.9,1365.5,1685,1371.4,1689.5,1380.1z M1716.3,1346c0.8,4.8,4.6,8.3,7.2,7.3
				c2.6-1.1,5.4-3.7,5.6-8.8C1729.3,1339,1714.7,1336.8,1716.3,1346L1716.3,1346z M1862.3,1238.8c1.4,2.4,10.1,3.6,10-2.9
				C1872.2,1223.2,1857.4,1230.1,1862.3,1238.8z M1867.3,1290.1c2,3.9,8,1.1,8.5-3.2C1876.7,1279.8,1864.2,1283.9,1867.3,1290.1z
				 M1889.6,1265.7c1.7,3.4,5.6,3.8,9.8-1c4.1-4.8,2.5-7.3-0.6-8.7C1891.2,1252.6,1885.8,1258.4,1889.6,1265.7z M1817.1,1292
				c0.8,4.8,4.6,8.3,7.2,7.3c2.6-1.1,5.4-3.7,5.6-8.8C1830.1,1285.1,1815.5,1282.8,1817.1,1292L1817.1,1292z M1698.3,1127.8
				c2.8,3.4,7.8,1.1,8.1-2.8C1707,1117.5,1693.3,1121.7,1698.3,1127.8z M1568.7,1395.3c0.7,6.5,8.4,8,10.9,4.6
				c2.5-3.4,1.5-10.3-0.5-12C1573.8,1383.5,1567.8,1387.7,1568.7,1395.3L1568.7,1395.3z M1668.4,1266c1.4,2.4,10.1,3.6,10-2.9
				C1678.3,1250.4,1663.5,1257.3,1668.4,1266z M1911.9,1381.5c2.8,3.4,7.8,1.1,8.1-2.8C1920.6,1371.3,1906.9,1375.4,1911.9,1381.5z
				 M1962.9,1372.8c1.4,2.4,10.1,3.6,10-2.9C1972.7,1357.1,1958,1364.1,1962.9,1372.8z M1743.5,1091.5c0.8,4.8,4.6,8.3,7.2,7.3
				c2.6-1.1,5.4-3.7,5.6-8.8C1756.5,1084.6,1741.9,1082.3,1743.5,1091.5L1743.5,1091.5z M1636.5,1180.5c2.8,3.4,7.8,1.1,8.1-2.8
				C1645.3,1170.2,1631.6,1174.4,1636.5,1180.5z M1785.9,1209.4c2.8,3.4,7.8,1.1,8.1-2.8C1794.6,1199.1,1780.9,1203.3,1785.9,1209.4
				z M1556.1,1276.1c-1.4,6.4,5.4,10.3,8.8,7.8c3.4-2.5,4.8-9.2,3.4-11.5C1564.7,1266.6,1557.8,1268.7,1556.1,1276.1z M1493.2,1390
				c4.1,7.2,13.1,4.6,13-3.8C1506,1369.7,1489.2,1382.8,1493.2,1390z M1821.7,1191.7c2.8,3.4,7.8,1.1,8.1-2.8
				C1830.4,1181.4,1816.7,1185.6,1821.7,1191.7z M1856.4,1189.1c0.8,4.8,4.6,8.3,7.2,7.3c2.6-1.1,5.4-3.7,5.6-8.8
				C1869.4,1182.2,1854.8,1179.9,1856.4,1189.1L1856.4,1189.1z M1731.4,1132.6c1.2,2.2,9.1,3.2,9-2.6
				C1740.3,1118.5,1727,1124.8,1731.4,1132.6z M1823.1,1152.1c0.7,6.5,8.4,8,10.9,4.6c2.5-3.4,1.5-10.3-0.5-12
				C1828.2,1140.3,1822.3,1144.5,1823.1,1152.1L1823.1,1152.1z"/>
			<path class="st2" d="M1438.2,1493.2c1.2-3.4,3.7-6.3,7.2-7.9c4.6-2.2,9.6-4,14.8-5.2c4.6-1.1,9.3-1.6,14-1.4
				c4.8,0.2,9.5,1.2,14,3c4.1,1.7,8,4.2,11.6,7.5l0.3,0.2c2.8,2.6,4.3,6.2,4.4,9.7c0.1,3.5-1.1,7-3.5,9.7l-0.2,0.3
				c-2.6,2.8-6.2,4.3-9.7,4.4c-3.6,0.1-7.2-1.1-10-3.8c-1.1-1.1-2.3-1.8-3.6-2.4c-1.4-0.6-2.8-0.9-4.3-0.9c-2.2-0.1-4.5,0.2-7,0.8
				c-2.9,0.7-5.8,1.9-8.7,3.2l-0.6,0.3l-0.1,0c-3.3,1.4-6.9,1.3-10,0.2c-3.4-1.2-6.3-3.7-7.9-7.2l-0.3-0.6l0-0.1
				C1437,1499.9,1437,1496.3,1438.2,1493.2L1438.2,1493.2z M1454.1,1367.8c0,0-3.8-12.7,1.8-17.3c7.9-6.6,16.7-12,26-14.5
				c8.1-2.3,16.5-2.3,25,0.8l0,0c3.4,1.3,4,6,3.3,11.3c-0.5,3.8-1.7,8.2-2.8,11.1c0,0-0.1,0.2-0.1,0.3c-1.4,3.7-4.1,6.2-7.8,7.7
				c-3.4,1.4-7.7,1.8-12.5,1.4c-5.1-0.4-10.4,1-14.6,2.1c-2,0.5-3.8,1-5.5,1.3c-6.3,1-10.8-1.8-10.8-1.8l-1.5-0.8L1454.1,1367.8
				L1454.1,1367.8z M1841.6,1241.1c2.4-1.6,5.3-1.8,8-0.7c1.7,0.7,3.3,1.8,4.6,3.4c1.2,1.5,2.2,3.4,2.6,5.5c0.8,4-0.1,9.1-4.3,14.5
				c-0.5,0.6-1,1.3-1.6,1.9c-5.3,5.5-13.8,9.5-23.6,9.9c-9.6,0.5-20.5-2.3-30.6-10.1c-1.5-1.2-3-2.4-4.4-3.8
				c-8.3-7.9-11.6-16.2-11.7-23.5c-0.1-3.6,0.6-6.9,1.8-9.9c1.2-3,2.9-5.6,4.9-7.7c3.5-3.6,7.9-5.8,12.1-5.9l0,0
				c3.2-0.1,5.8,0.5,7.7,1.5c2,1,3.3,2.4,4.2,4c0.9,1.5,1.2,3.2,1.3,4.9l0,0c0.1,2.8-0.9,5.7-1.9,7.9c-0.1,0-0.2-0.1-0.2,0
				c0.1,0.1,0.3,0.2,0.6,0.3c0.4,0.1,0.8,0,1.1-0.1c0.9-0.4,1.7-1.7,1.7-4.3c0.1-5.1,0.5-10.2,2.8-14c2.8-4.6,7.6-6.7,16.1-3.9l0,0
				c2.5,0.8,5,2,7.2,3.3c3,1.8,5.7,4.1,7.5,6.5c2.2,3,3.1,6.4,2,9.7l0,0c-0.2,0.6-0.5,1.3-0.9,1.9c-2.2,3.6-5.9,5.8-9.6,7.9
				c-1.5,0.9-3.1,1.7-4.3,2.6c-1.9,1.4-2.6,2.5-2.5,3.3c0,0.1,0.1,0.2,0.1,0.3c0.1,0.1,0.3,0.3,0.4,0.4c0.8,0.4,1.9,0.3,3.2-0.6
				c0.4-0.2,0.9-0.8,1.5-1.5C1838.6,1243.6,1839.9,1242.2,1841.6,1241.1L1841.6,1241.1z M1707.7,1143c15.9-0.8,31.1,4.3,42.8,13
				c11.9,8.9,20.2,21.7,22.2,36.2c0.2,1.4,0.3,2.7,0.4,4.1c0.6,13-4.1,25-12.5,34.1c-8.3,9-20.2,15.3-34.1,17.2
				c-1.8,0.2-3.6,0.4-5.5,0.5c-15.9,0.8-31.1-4.3-42.8-13c-11.9-8.9-20.2-21.7-22.2-36.2c-0.2-1.4-0.3-2.7-0.4-4.1
				c-0.6-13,4.1-25,12.5-34.1c8.3-9,20.2-15.3,34.1-17.2C1703.9,1143.3,1705.8,1143.1,1707.7,1143L1707.7,1143z M1351.1,1439.2
				c10-6.2,22.6-9.2,35.3-7.5c1.6,0.2,3.1,0.5,4.4,0.8c11.1,2.5,20.2,8.4,26.3,16.2c6.2,8,9.2,18,7.8,28.5c-0.2,1.2-0.3,2.3-0.6,3.3
				c-2.6,11.6-10.2,21.3-20.4,27.7c-10,6.2-22.6,9.2-35.3,7.5c-1.6-0.2-3.1-0.5-4.4-0.8c-11.1-2.5-20.2-8.4-26.3-16.2
				c-6.2-8-9.2-18-7.8-28.5c0.2-1.2,0.4-2.3,0.6-3.3C1333.3,1455.3,1340.9,1445.6,1351.1,1439.2L1351.1,1439.2z M1623.1,1301.2
				c14.3-2.8,28.7-0.3,40.5,6.1c11.9,6.5,21.2,16.9,24.9,29.8c0.3,1.2,0.6,2.4,0.9,3.7c2.3,11.7-0.4,23.1-6.8,32.6
				c-6.3,9.2-16.3,16.5-28.6,20.1c-1.6,0.5-3.2,0.9-4.9,1.2c-14.3,2.8-28.7,0.3-40.5-6.1c-11.9-6.5-21.2-16.9-24.9-29.8
				c-0.3-1.2-0.6-2.4-0.9-3.7c-2.3-11.7,0.4-23.1,6.8-32.6c6.3-9.3,16.3-16.5,28.6-20.1C1619.7,1302,1621.4,1301.6,1623.1,1301.2
				L1623.1,1301.2z M1811.2,1311.6c19.7-1,38.5,5.3,53,16.1c14.7,11,25,26.7,27.4,44.6c0.2,1.7,0.4,3.4,0.5,5
				c0.8,16-5,30.6-15.4,41.9c-10.2,11.1-24.9,18.9-42.1,21.2c-2.2,0.3-4.5,0.5-6.8,0.6c-19.7,1-38.5-5.3-53-16.1
				c-14.7-11-24.9-26.7-27.4-44.6c-0.2-1.7-0.4-3.4-0.5-5c-0.8-16,5-30.6,15.4-41.9c10.2-11.1,24.9-18.9,42.1-21.2
				C1806.6,1311.9,1808.9,1311.7,1811.2,1311.6L1811.2,1311.6z M1603.2,1458.3c-2.1,2.7-5.2,4-8.6,3.9c-2.2-0.1-4.5-0.7-6.5-2
				c-2-1.2-3.9-3-5.2-5.3c-2.6-4.4-3.6-10.8-0.9-18.9c0.3-1,0.7-2,1.1-2.9c4-9,12.8-17.4,24.6-22.2c11.6-4.7,26.1-6,41.8-0.8
				c2.3,0.7,4.6,1.7,7.1,2.8c13.5,6.1,21,14.7,24.3,23.5c1.6,4.3,2.2,8.6,2.1,12.6c-0.2,4.1-1.1,7.9-2.6,11.3
				c-2.6,5.8-6.9,10.2-11.8,12.1c-3.8,1.4-7,1.8-9.7,1.5c-2.6-0.3-4.7-1.3-6.3-2.8c-1.6-1.4-2.7-3.2-3.4-5.1
				c-1.2-3.3-1.4-7.1-1-10.1c0.1-0.7-0.1-1.2-0.5-1.4c-0.4-0.2-1.1-0.3-1.7-0.2c-0.7,0.1-1.5,0.4-2.1,1l0,0
				c-1.3,1.2-1.9,3.6-0.6,7.5c2,6.2,3.8,12.7,2.6,18.1c-1.4,6.3-6.1,10.7-17.2,10.9c-3.3,0.1-6.9-0.3-10.2-1
				c-4.5-0.9-8.6-2.5-11.8-4.7c-3.7-2.6-6.1-6-6.2-10.2c0-0.8,0.1-1.7,0.2-2.5c1.1-5.1,4.7-9.3,8.3-13.5c1.5-1.8,3-3.5,4.3-5.3
				c2.1-3,2.4-5.2,1.8-6.6l0,0c-0.2-0.4-0.4-0.7-0.8-0.9l0,0c-0.4-0.3-0.8-0.4-1.3-0.5c-1.6-0.2-3.5,0.6-5,2.6
				c-0.4,0.5-0.8,1.6-1.3,2.8C1605.6,1454.1,1604.7,1456.2,1603.2,1458.3L1603.2,1458.3z M1594.9,1454.1c0.8,0,1.5-0.2,1.9-0.7
				c0.9-1.2,1.6-2.9,2.3-4.4c0.7-1.6,1.3-3.2,2.3-4.5c3.5-4.7,8.4-6.3,12.6-5.8c1.8,0.2,3.5,0.9,4.9,1.9c1.5,1,2.7,2.5,3.5,4.2l0,0
				c1.7,3.7,1.4,8.8-2.5,14.6c-1.4,2-3.1,4-4.8,6c-2.9,3.4-5.8,6.7-6.4,9.8c-0.1,0.3-0.1,0.5-0.1,0.8c0,1.3,1.1,2.6,2.7,3.7
				c2.2,1.5,5.4,2.7,8.8,3.4c2.7,0.6,5.6,0.8,8.4,0.8c6.4-0.1,8.9-1.9,9.5-4.5c0.8-3.5-0.8-8.7-2.4-13.9c-2.4-7.4-0.5-12.7,2.8-15.9
				l0,0c1.9-1.8,4.2-2.8,6.5-3.2c2.4-0.4,4.8,0,6.8,1.1c3.1,1.7,5.2,4.9,4.6,9.5c-0.2,1.9-0.2,4.3,0.5,6.2l0,0
				c0.3,0.8,0.7,1.4,1.2,1.9c0.5,0.4,1.1,0.7,1.9,0.8c1.4,0.2,3.3-0.1,5.9-1.1l0,0c2.9-1.1,5.6-3.9,7.3-7.8c1.1-2.5,1.8-5.3,1.9-8.3
				c0.1-3.1-0.3-6.3-1.5-9.5l0,0c-2.6-7-8.7-13.9-20-18.9c-2.1-0.9-4.2-1.7-6.4-2.5c-13.7-4.5-26.3-3.5-36.2,0.6
				c-9.8,4-17,10.8-20.2,18l0,0c-0.3,0.7-0.6,1.4-0.8,2.1l0,0c-1.8,5.6-1.3,9.6,0.2,12.2c0.7,1.1,1.5,2,2.5,2.5
				C1593.1,1453.8,1594,1454,1594.9,1454.1L1594.9,1454.1z M1647.2,1245.6c0.2,0.1,0.5-0.1,0.9-0.3c0.4-0.3,0.8-0.8,1.1-1.4
				c0.3-0.7,0.5-1.5,0.4-2.5c-0.2-2.2-1.6-5-5.2-7.7c-0.5-0.4-1-0.7-1.5-1c-5.3-3.2-13-4.4-21.2-2.5c-8.3,1.9-17,6.9-23.9,16l0,0
				c-1.1,1.5-2.1,3-3,4.5c-5.1,8.4-5.9,15.6-4.5,21.3c0.7,2.6,1.8,4.9,3.2,6.7c1.4,1.9,3.1,3.4,4.9,4.5c2.7,1.6,5.6,2.3,7.8,1.7l0,0
				c2-0.5,3.3-1.1,4-1.8c0.4-0.4,0.6-0.7,0.7-1.1c0.1-0.4,0.1-0.9-0.1-1.5l0,0c-0.4-1.5-1.4-2.9-2.3-4l0,0c-2.7-3-2.9-6.4-1.4-9.3
				c0.9-1.8,2.5-3.3,4.4-4.3c1.8-0.9,4-1.3,6.2-1c3.9,0.6,7.8,3.4,9.8,9.8c1.3,4.1,2.6,8.2,4.6,10c1.3,1.2,3.5,1.2,7.5-1.5
				c1.9-1.2,3.6-2.7,5.1-4.3c1.9-2,3.4-4.1,4.1-6.1c0.5-1.3,0.6-2.4,0.1-3c-0.1-0.2-0.2-0.3-0.3-0.4c-1.7-1.6-5.1-2.5-8.5-3.3
				c-2-0.5-4.1-1-6-1.8c-5.6-2.1-8.2-5.6-8.9-9.1c-0.3-1.7-0.1-3.3,0.4-4.8c0.5-1.4,1.4-2.8,2.6-3.8c2.7-2.5,7-3.7,11.8-2.1
				c1.3,0.4,2.5,1.2,3.8,2C1644.9,1244.5,1646.1,1245.2,1647.2,1245.6L1647.2,1245.6z M1652.9,1251.8c-2.4,1.8-5.3,2.4-8.2,1.5
				c-2-0.7-3.7-1.7-5.2-2.7c-0.8-0.5-1.5-1-2-1.1c-1.7-0.6-3.1-0.3-3.8,0.4c-0.2,0.2-0.4,0.4-0.4,0.6c-0.1,0.2-0.1,0.4-0.1,0.6
				c0.2,0.9,1.3,2,3.8,3c1.5,0.6,3.4,1,5.2,1.5c4.4,1.1,8.8,2.3,12.1,5.4c0.6,0.6,1.1,1.1,1.5,1.7c2.1,3.1,2.1,6.7,0.7,10.4
				c-1.1,3-3.2,6-5.9,8.8c-2,2.1-4.2,4-6.5,5.5c-7.9,5.3-13.3,4.4-17.5,0.6c-3.5-3.2-5.3-8.4-6.9-13.6c-0.9-2.8-2.1-4-3.3-4.2
				c-0.5-0.1-1,0-1.4,0.2c-0.3,0.2-0.6,0.4-0.7,0.6c0,0,0.1,0.1,0.2,0.3c1.7,1.9,3.4,4.6,4.2,7.5c0.4,1.7,0.5,3.5,0.1,5.3
				c-0.5,1.9-1.4,3.7-3.1,5.2l0,0c-1.7,1.5-4.1,2.8-7.5,3.7c-4.4,1.1-9.5,0.1-14-2.6c-2.7-1.6-5.1-3.8-7.2-6.5
				c-2-2.7-3.7-5.9-4.6-9.6c-1.9-7.6-0.9-17,5.4-27.5c1.1-1.9,2.3-3.6,3.5-5.2c8.2-10.9,18.6-16.8,28.6-19.1
				c10.2-2.3,20.1-0.7,27.1,3.5c0.8,0.5,1.5,0.9,2.2,1.5c5.8,4.3,8.1,9.2,8.4,13.6c0.2,2.3-0.3,4.5-1.1,6.3
				C1655.7,1249.1,1654.4,1250.7,1652.9,1251.8L1652.9,1251.8z M1846.6,1247.9c-0.3-0.1-0.5-0.1-0.6-0.1c-0.9,0.6-1.7,1.5-2.5,2.4
				c-1,1.1-1.9,2.1-3,2.8c-4,2.7-8.2,2.6-11.4,1c-1.4-0.7-2.5-1.7-3.4-2.9c-0.9-1.2-1.5-2.7-1.6-4.3c-0.3-3.4,1.3-7.3,5.8-10.6
				c1.6-1.2,3.3-2.1,5-3.1c2.8-1.6,5.6-3.2,6.7-5c0.1-0.1,0.1-0.2,0.1-0.3l0,0c0.2-0.6-0.1-1.5-0.8-2.4c-1.1-1.5-3-3.1-5.1-4.3l0,0
				c-1.8-1.1-3.7-1.9-5.6-2.6l0,0c-4-1.3-5.9-0.9-6.7,0.4c-1.3,2.1-1.5,6-1.6,10c-0.2,6.3-3.1,9.9-6.5,11.5c-1.9,0.9-4.1,1.1-6,0.7
				c-2-0.4-3.8-1.4-5.1-2.8c-2-2.3-2.8-5.5-1-9l0,0c0.6-1.2,1.1-2.7,1.1-4.1c0-0.5-0.1-0.9-0.3-1.2c-0.1-0.2-0.4-0.5-0.7-0.7
				c-0.8-0.4-2.1-0.6-4-0.6c-2.1,0-4.4,1.3-6.4,3.4c-1.3,1.4-2.4,3.1-3.2,5.1c-0.8,2-1.3,4.3-1.2,6.7l0,0c0.1,5.4,2.7,11.6,9.2,17.8
				c1.3,1.2,2.5,2.3,3.8,3.3c8.4,6.5,17.3,8.8,25.2,8.4c7.7-0.4,14.3-3.3,18.2-7.4c0.4-0.4,0.7-0.8,1.1-1.3c2.5-3.2,3.1-5.9,2.7-7.9
				c-0.2-0.8-0.5-1.5-0.9-2C1847.5,1248.4,1847,1248.1,1846.6,1247.9L1846.6,1247.9z M1598.9,1485.7c0,0-0.4,10-3.6,12.7
				c-0.3,0.2-0.6,0.4-0.9,0.6c-1.9,1-11.6,2.1-21.1,2.3c-10,0.2-20.3-0.7-23-4c-0.3-0.3-0.5-0.7-0.7-1c-1.8-3.6-1.3-10,1.3-15.8
				c2.1-4.8,5.7-9.5,10.3-12.1c10.7-6.1,36,14.2,36.1,14.3l1.5,1.2L1598.9,1485.7L1598.9,1485.7z M1590.2,1491.9
				c0.2-0.7,0.4-2.8,0.4-4.3c-5-3.8-20.4-15.1-25.4-12.3c-3,1.7-5.4,5-6.9,8.4c-1.6,3.5-2.2,6.9-1.6,8.6c1.4,0.9,8.8,1.1,16.4,0.9
				C1580.8,1493,1588.1,1492.4,1590.2,1491.9L1590.2,1491.9z M1743,1252.9c0,0,10.6,12.3,6.8,20l-0.6,1.1c-2.6,5.3-4.9,10-13,16.2
				c-3.6,2.8-6,4.8-7.3,6.8c-1.1,1.7-1.4,3.9-1.1,7.4c0.9,9.2-10.7,12-19.9,12.8c-3,0.3-5.7,0.4-7.4,0.4c-0.4,0-0.9,0-1.3,0.1
				c-3.9,0.2-7.1-5.2-9.3-11.9l0,0c-1.7-5.3-3-11.8-3.3-15.8l0-0.2c-0.2-4.8,1.5-8.9,4.8-12.3c3.1-3.3,7.8-5.9,13.5-8
				c6.4-2.3,12-6.7,16.5-10.3c2.1-1.7,4-3.2,5.8-4.3c6.6-4.2,13-3.4,13-3.4l1.6,0.2L1743,1252.9L1743,1252.9z M1742.6,1269.3
				c1-2.1-2.7-7.3-4.6-9.8c-1.4,0.1-3.7,0.6-6.2,2.1c-1.4,0.9-3.1,2.3-5.1,3.9c-4.9,4-11.1,8.9-18.8,11.6c-4.6,1.6-8.2,3.6-10.4,5.9
				c-1.8,1.8-2.7,3.9-2.5,6.3l0,0.2c0.2,3.4,1.4,9,2.9,13.8c1.1,3.4,0.5,6.3,1.1,6.3l1.5,0c1.6-0.1,4.1-0.1,6.9-0.4
				c5.7-0.5,12.8-1.6,12.6-4c-0.5-5.4,0.2-9.1,2.3-12.4c1.9-3.1,4.9-5.5,9.2-8.9c6.6-5.1,8.5-9,10.7-13.4L1742.6,1269.3
				L1742.6,1269.3z M1275,1515.2c0.9,1.7,2.2,4,3,4c4.8-0.1,7.6-0.8,11.4-1.7c1.5-0.4,3-0.7,4.2-1c4-0.9,8.7-2,12.7-3.6
				c3.6-1.5,6.7-3.6,8.3-6.4l0-0.1c0.3-0.8-2.2-0.1-3.8-1.7c-1.9-1.9-4.1-3.8-5.9-5.1c-2.1,1.1-4.9,2.5-8.1,4
				C1288.7,1507.5,1278,1512.6,1275,1515.2L1275,1515.2z M1278.2,1527.3c-6.7,0.1-11.4-10.6-11.4-10.6l-0.7-1.4l0.5-1.5
				c1.7-5.5,16.1-12.3,26.9-17.5c4.3-2.1,8-3.8,9.5-4.8l2-1.3c0.5,0.3,1.8,0.9,2.2,1.2c2.5,1.4,6.4,4.5,9.4,7.6l0,0
				c4,4,6.7,8.5,5.2,11.3c-0.1,0.1-0.1,0.3-0.2,0.4c-2.6,4.5-7.1,7.5-12,9.6c-4.7,2-9.8,3.2-14.2,4.1c-1.9,0.4-3,0.7-4.1,0.9
				C1287,1526.4,1283.8,1527.2,1278.2,1527.3L1278.2,1527.3z M1685.7,1409.2c0.9,1.7,2.2,4,3,4c4.8-0.1,7.6-0.8,11.4-1.7
				c1.5-0.4,3-0.7,4.2-1c4-0.9,8.7-2,12.7-3.6c3.1-1.3,4.7-1.9,5.7-2.9c1-1.1,1.4-2.7-1.2-5.2c-1.9-1.9-4.1-3.8-5.9-5.1
				c-2.1,1.1-4.9,2.5-8.1,4C1699.3,1401.4,1688.7,1406.5,1685.7,1409.2L1685.7,1409.2z M1688.8,1421.3c-6.7,0.1-11.4-10.6-11.4-10.6
				l-0.7-1.4l0.5-1.5c1.7-5.5,16.1-12.3,26.9-17.5c4.3-2.1,8-3.8,9.5-4.8l2-1.3c0.5,0.3,1.8,0.9,2.2,1.2c2.5,1.4,6.4,4.5,9.4,7.6
				l0,0c4,4,6.7,8.5,5.2,11.3c-0.1,0.1-0.1,0.3-0.2,0.4c-2.6,4.5-7.1,7.5-12,9.6c-4.7,2-9.8,3.2-14.2,4.1c-1.9,0.4-3,0.7-4.1,0.9
				C1697.7,1420.4,1694.4,1421.1,1688.8,1421.3L1688.8,1421.3z M1922.2,1408.2c-1,2.4-2.7,6.9-1.5,8.1l0.7,0.8
				c2.7,3,5.1,5.7,11.5,8.4c4.3,1.8,7.3,3.1,9.7,5.3c2.6,2.4,4,5.3,4.8,10c0.3,1.5,6,0.7,10.5-0.1c2.3-0.4,4.4-0.9,5.7-1.2
				c0.6-0.3,0.1-2.8,0.2-5.1c0.2-4.2-0.1-9-0.7-11.8l0-0.2c-0.4-1.8-1.5-3.2-3.2-4.2c-2.3-1.3-5.5-2.1-9.5-2.4
				c-7-0.5-13.2-3.2-18.2-5.3c-1.9-0.8-3.7-1.6-5-2C1925,1408,1923.3,1408,1922.2,1408.2L1922.2,1408.2z M1914.6,1421.7
				c-5.1-5.7,1-18.6,1-18.7l0.6-1.3l1.3-0.6c0,0,5.4-2.3,11.9-0.2c1.8,0.6,3.6,1.4,5.7,2.3c4.4,1.9,9.9,4.3,15.6,4.7
				c5.3,0.4,9.7,1.5,13.1,3.5c3.7,2.2,6.1,5.3,7,9.4l0,0.2c1.1,5,2.7,24.3-4.4,26.1c-0.4,0.1-0.8,0.2-1.2,0.3
				c-1.4,0.3-3.6,0.9-6.2,1.3c-8,1.4-18.4,1.7-19.8-6.5c-0.5-2.7-1.2-4.3-2.4-5.4c-1.4-1.3-3.8-2.3-7.3-3.8
				c-8.1-3.3-11.1-6.7-14.5-10.5L1914.6,1421.7L1914.6,1421.7z M1461.1,1356.7c-1,0.8-0.2,4.7,0.4,7c1,0.3,2.4,0.5,4.2,0.3
				c1.1-0.2,2.8-0.6,4.7-1.1c4.8-1.3,10.8-2.8,17.3-2.3c3.7,0.3,6.7,0,8.8-0.8c1.6-0.6,2.7-1.7,3.3-3.2l0.1-0.2
				c0.9-2.5,1.9-6.2,2.3-9.4c0.2-1.7,0.3-2.7-0.7-3.1c-6.7-2.5-10.9-1.9-17.5-0.1C1476,1345.9,1468.2,1350.8,1461.1,1356.7
				L1461.1,1356.7z M1557,1298.5c3.8-1.8,7.9-1.9,11.6-0.7c3.7,1.3,6.8,3.9,8.7,7.7c1.8,3.8,1.9,7.9,0.7,11.6
				c-1.3,3.7-3.9,6.8-7.7,8.7c-3.2,1.5-6.3,3.3-9,5.4c-2.3,1.7-4.3,3.6-5.7,5.6c-1,1.4-1.8,2.9-2.3,4.6c-0.4,1.5-0.6,3.2-0.5,5
				c0.3,4.2-1.1,8.1-3.7,11c-2.5,2.9-6.2,4.9-10.4,5.2l-0.6,0l-0.1,0c-3.9,0.1-7.6-1.3-10.4-3.7c-2.9-2.5-4.9-6.2-5.2-10.4l0-0.6
				c-0.3-5.4,0.3-10.4,1.6-15.1c1.5-5.2,4-9.9,7.2-14.2c3.1-4.2,6.9-7.9,11-11.1C1546.7,1304,1551.8,1301,1557,1298.5L1557,1298.5z
				 M1770.5,1146.2c-3.8-1.7-6.6-4.7-8.1-8.3c-1.4-3.6-1.5-7.8,0.2-11.6c1.7-3.8,4.7-6.6,8.3-8.1c3.6-1.4,7.8-1.5,11.6,0.2l0,0
				c5.4,2.4,9.8,5.6,13.3,9.5c3.7,4.2,6.4,9.1,8.1,14.5c1.6,5.1,2.3,10.5,2.4,15.9c0.1,6-0.7,12.1-2,17.9c-0.9,4.1-3.4,7.4-6.7,9.5
				c-3.3,2.1-7.3,2.9-11.4,2c-4.1-0.9-7.4-3.4-9.5-6.7c-2.1-3.3-2.9-7.3-2-11.4c0.8-3.4,1.2-7,1.3-10.3c0-2.8-0.3-5.5-1-7.8
				c-0.4-1.3-1-2.5-1.8-3.4C1772.4,1147.3,1771.6,1146.6,1770.5,1146.2L1770.5,1146.2z M1708.5,1458.8L1708.5,1458.8
				c-3.1-2.8-4.8-6.6-5.1-10.5c-0.2-3.8,1-7.6,3.6-10.7l0.2-0.2c2.8-3.1,6.6-4.8,10.4-5.1c3.9-0.2,7.8,1,11,3.8
				c1.2,1.1,2.7,2,4.3,2.7c1.8,0.8,3.9,1.3,6,1.6c2.6,0.4,5.3,0.5,7.9,0.2c2.8-0.2,5.4-0.8,7.8-1.5c4-1.3,8.1-0.8,11.6,0.9
				c3.4,1.8,6.2,4.9,7.5,8.8c1.3,4,0.8,8.1-0.9,11.6c-1.8,3.4-4.9,6.2-8.8,7.5c-4.6,1.5-9.6,2.5-14.7,2.9c-4.9,0.4-9.9,0.3-14.9-0.5
				c-4.9-0.7-9.7-2.1-14.2-4.1C1716.1,1464.5,1712.1,1462,1708.5,1458.8L1708.5,1458.8z M1883.6,1318c-0.1-4.2,1.6-8,4.3-10.8
				c2.7-2.8,6.5-4.5,10.7-4.6c4.2-0.1,8,1.6,10.8,4.3c2.8,2.7,4.5,6.5,4.6,10.7c0,2.7,0.4,5,1.1,7c0.7,2.1,1.7,3.8,2.9,5.2
				c0.6,0.7,1.3,1.3,2,1.9c0.7,0.5,1.5,1,2.3,1.4c0.7,0.3,1.4,0.6,2.1,0.7c0.6,0.1,1.3,0.2,2,0.2c0.8,0,1.5-0.1,2-0.3
				c0.5-0.2,1-0.4,1.4-0.8c3.2-2.7,7.2-3.9,11-3.6c3.9,0.3,7.6,2.1,10.4,5.2c2.7,3.2,3.9,7.2,3.6,11c-0.3,3.9-2.1,7.6-5.2,10.4
				c-3.2,2.8-6.8,4.9-10.6,6.3c-3.9,1.5-8.1,2.2-12.2,2.2c-2.9,0-5.9-0.3-8.8-0.9c-2.9-0.6-5.7-1.6-8.5-2.9
				c-2.7-1.3-5.3-2.8-7.8-4.7c-2.4-1.8-4.6-3.9-6.6-6.3c-3.5-4.1-6.4-9-8.4-14.5C1884.8,1329.9,1883.7,1324.2,1883.6,1318
				L1883.6,1318z"/>
			<path class="st2" d="M1567.1,1399.8c2.2-14.2,4.3-28.3,14.1-41.3l7.9-10.5l-12.9,2.5c-27.9,5.4-46.6,19.8-58.7,37.8
				c-8,12-13,25.7-15.7,39.4c-5.4-14.9-13.4-26.7-24.8-36.6c-18.9-16.5-47-27.1-88.1-37l-7.1-1.7l1,7.3
				c4.8,35.3,18.2,62.9,39.2,82.5c24.2,22.7,55.1,34.5,87.5,37.5C1548.4,1460.7,1560.8,1441.1,1567.1,1399.8z"/>
			<path class="st6" d="M1964.9,1160.3c1.8,3.1,13.1,4.6,13-3.8C1977.7,1140,1958.5,1149,1964.9,1160.3z M2091.5,1354.5
				c2.9,5.6,11.5,1.6,12.2-4.5C2104.9,1339.8,2087,1345.7,2091.5,1354.5z M2023.2,1308.7c1.8,3.1,13.1,4.6,13-3.8
				C2035.9,1288.5,2016.8,1297.4,2023.2,1308.7z M2069.8,1327.1c2.9,5.6,11.5,1.6,12.2-4.5
				C2083.3,1312.5,2065.4,1318.4,2069.8,1327.1z M2024.1,1351.3c1.2,7,4.6,8.3,7.2,7.3c2.6-1.1,5.4-3.7,5.6-8.8
				C2037.2,1344.4,2022.9,1344.3,2024.1,1351.3L2024.1,1351.3z M2044.7,1262c2.7,5.4,5.6,3.8,9.8-1c4.1-4.8,2.5-7.3-0.6-8.7
				C2046.3,1248.9,2041.9,1256.6,2044.7,1262z M1899.6,1092.6c1.4,2.4,10.1,3.6,10-2.9C1909.4,1077,1894.6,1083.9,1899.6,1092.6z
				 M1904.6,1143.9c2,3.9,8,1.1,8.5-3.2C1914,1133.6,1901.5,1137.7,1904.6,1143.9z M1926.8,1119.5c1.7,3.4,5.6,3.8,9.8-1
				c4.1-4.8,2.5-7.3-0.6-8.7C1928.4,1106.4,1923.1,1112.2,1926.8,1119.5L1926.8,1119.5z M1779.3,1038.7c3.9,4.8,7.8,1.1,8.1-2.8
				C1788,1028.4,1775.4,1033.9,1779.3,1038.7z M2123.4,1493.6c0.8,7.1,8.4,8,10.9,4.6c2.5-3.4,1.5-10.3-0.5-12
				C2128.6,1481.8,2122.7,1486.6,2123.4,1493.6L2123.4,1493.6z M1981.2,1268.4c3.9,4.8,7.8,1.1,8.1-2.8
				C1989.9,1258.1,1977.3,1263.6,1981.2,1268.4z M1994.9,1233.9c3.1,5.6,10.1,3.6,10-2.9C2004.8,1218.3,1991.8,1228.4,1994.9,1233.9
				z M2011.8,1180.4c1.2,7,4.6,8.3,7.2,7.3c2.6-1.1,5.4-3.7,5.6-8.8C2024.8,1173.5,2010.5,1173.4,2011.8,1180.4L2011.8,1180.4z
				 M1932.9,1198.3c3.9,4.8,7.8,1.1,8.1-2.8C1941.7,1188,1929.1,1193.5,1932.9,1198.3z M1823.1,1063.2c2.8,3.4,7.8,1.1,8.1-2.8
				C1831.8,1052.9,1818.1,1057.1,1823.1,1063.2z M2100.3,1427.1c-1.6,6.9,5.4,10.3,8.8,7.8c3.4-2.5,4.8-9.2,3.4-11.5
				C2108.9,1417.6,2101.8,1420.2,2100.3,1427.1L2100.3,1427.1z M2077.9,1487.9c4.1,7.2,13.1,4.6,13-3.8
				C2090.6,1467.6,2073.8,1480.7,2077.9,1487.9z M1858.9,1045.5c2.8,3.4,7.8,1.1,8.1-2.8C1867.6,1035.2,1853.9,1039.4,1858.9,1045.5
				z M1779.6,1010.6c2.8,5,9.1,3.2,9-2.6C1788.4,996.6,1776.8,1005.6,1779.6,1010.6z"/>
			<path class="st10" d="M1857,1337.4c-12.3-9.2-28.3-14.5-45.1-13.7c-2,0.1-3.9,0.3-5.8,0.5c-14.3,1.9-26.4,8.3-34.8,17.4
				c-8.2,8.9-12.8,20.5-12.2,33c0.1,1.3,0.2,2.7,0.4,4.1c2,14.5,10.4,27.4,22.6,36.5c12.3,9.2,28.3,14.5,45.1,13.7
				c2-0.1,3.9-0.3,5.8-0.5c14.3-1.9,26.4-8.3,34.8-17.4c8.2-8.9,12.8-20.5,12.2-33c-0.1-1.3-0.2-2.7-0.4-4.1
				C1877.6,1359.4,1869.1,1346.5,1857,1337.4L1857,1337.4z M1384.9,1442.9c-10.1-1.4-20,1-27.9,5.9c-7.7,4.8-13.4,12-15.3,20.5
				c-0.2,0.9-0.3,1.7-0.4,2.4c-1,7.4,1.1,14.4,5.5,20.1c4.5,5.8,11.4,10.3,19.9,12.1l0,0c1.3,0.3,2.4,0.5,3.5,0.6
				c10.1,1.4,20-1,27.9-5.9c7.7-4.8,13.4-12,15.3-20.5c0.2-0.9,0.3-1.7,0.4-2.4c1-7.4-1.1-14.4-5.5-20.1
				c-4.5-5.8-11.4-10.3-19.9-12.1l0,0C1387.1,1443.2,1386,1443,1384.9,1442.9L1384.9,1442.9z M1372.1,1476.3
				c-0.4-4.1,1.9-7.8,4.2-7.5c2.4,0.3,5.2,1.8,6.5,5.9C1384.2,1479,1372.9,1484.1,1372.1,1476.3z M1375,1450.8
				c0.5-2.1,6.9-4.8,8.2,0.1C1385.8,1460.6,1373.1,1458.4,1375,1450.8z M1390.5,1489.9c4.4,3.3,9.8-0.6,9.1-4.1
				c-0.7-3.5-5.4-6.9-7.7-6.6C1386.1,1479.9,1385.3,1486,1390.5,1489.9L1390.5,1489.9z M1352.8,1463.7c0.6,5.5,7.1,6.8,9.2,3.9
				c2.1-2.9,1.3-8.7-0.4-10.1C1357.1,1453.7,1352.1,1457.2,1352.8,1463.7z M1349.9,1487.8c1.1,1.9,8,2.8,7.9-2.3
				C1357.6,1475.5,1346,1480.9,1349.9,1487.8z M1364.2,1496.6c3.1,3.8,8.6,1.2,9-3.1C1373.9,1485.2,1358.6,1489.8,1364.2,1496.6z
				 M1396,1463.6c0.7,4.1,3.9,7,6.1,6.1c2.2-0.9,4.5-3.1,4.7-7.4C1407,1457.8,1394.6,1455.9,1396,1463.6L1396,1463.6z
				 M1658.3,1317.1c-9.6-5.2-21.3-7.3-33-5c-1.4,0.3-2.7,0.6-4,1c-9.8,2.8-17.6,8.5-22.5,15.6c-4.8,7-6.8,15.5-5.1,24.1
				c0.2,0.9,0.4,1.8,0.7,2.8c2.8,9.9,10.1,18,19.5,23.1c9.6,5.2,21.3,7.3,33,5c1.4-0.3,2.7-0.6,4-1c9.8-2.8,17.6-8.5,22.5-15.6
				c4.8-7,6.8-15.5,5.1-24.1c-0.2-0.9-0.4-1.8-0.7-2.8C1674.9,1330.3,1667.6,1322.2,1658.3,1317.1z M1631,1354.6
				c4,6.3,11.8,0.5,11.3-6.8C1641.6,1335.7,1624.9,1344.8,1631,1354.6z M1646.3,1334.9c2,2.9,5.6,2.7,8.7-2.2
				c3.1-4.9,1.3-6.9-1.7-7.8C1646.1,1322.9,1642,1328.8,1646.3,1334.9z M1613.4,1367.2c1.5,1.9,9,1.8,8.1-3.7
				C1619.8,1352.8,1608.2,1360.4,1613.4,1367.2z M1604.1,1340.3c-1.8-5.7,4.1-9.8,7.4-7.8c3.3,2,5.1,8,4,10.3
				C1612.7,1348.4,1606.2,1347,1604.1,1340.3z M1641.2,1370.6c-1.1-4.4,0.8-8.7,3.4-8.7c2.6,0,5.8,1.1,7.9,5.3
				C1654.6,1371.7,1643.2,1378.9,1641.2,1370.6L1641.2,1370.6z M1660.5,1353.6c1.5,1.9,9,1.8,8.1-3.7
				C1666.8,1339.2,1655.2,1346.8,1660.5,1353.6z M1625.6,1330.9c1.7,2.1,10.3,2,9.3-4.2C1632.9,1314.4,1619.6,1323.2,1625.6,1330.9z
				 M1743.2,1165.8c-9.5-7.1-21.9-11.2-34.9-10.6c-1.5,0.1-3,0.2-4.5,0.4c-11,1.5-20.4,6.4-26.8,13.4c-6.3,6.8-9.8,15.7-9.3,25.2
				c0.1,1,0.1,2,0.3,3.1c1.5,11.2,8,21.1,17.4,28.1c9.5,7.1,21.9,11.2,34.9,10.6c1.5-0.1,3-0.2,4.5-0.4c11-1.5,20.4-6.4,26.8-13.4
				c6.3-6.8,9.8-15.7,9.3-25.2c0-1-0.1-2-0.3-3.1C1759.1,1182.7,1752.5,1172.7,1743.2,1165.8L1743.2,1165.8z M1706.7,1193.4
				c0.8,4.8,4.6,8.3,7.2,7.3c2.6-1.1,5.4-3.7,5.6-8.8C1719.7,1186.5,1705.1,1184.2,1706.7,1193.4L1706.7,1193.4z M1843.2,1361.7
				c1.7,3.4,5.6,3.8,9.8-1c4.1-4.8,2.5-7.3-0.6-8.7C1844.8,1348.7,1839.4,1354.4,1843.2,1361.7z M1805.3,1401.8
				c1.3,2.3,9.4,3.3,9.4-2.7C1814.5,1387.2,1800.7,1393.7,1805.3,1401.8z M1814.7,1414.7c-3.5,3.8,1.8,8,6.6,6.4
				C1829.4,1418.3,1820.2,1408.8,1814.7,1414.7z M1809.8,1370.4c-1.1-6.4,6-10,9.3-7.3c3.3,2.7,4.2,9.5,2.7,11.7
				C1817.8,1380.4,1811,1377.9,1809.8,1370.4z M1781.8,1402.3c-1.1-6.4,6-10,9.3-7.3c3.3,2.7,4.2,9.5,2.7,11.7
				C1789.9,1412.4,1783,1409.9,1781.8,1402.3z M1768.1,1376.7c0.6-2.5,8.2-5.7,9.7,0.1C1780.9,1388.3,1765.9,1385.8,1768.1,1376.7z
				 M1783.2,1363.7c2.4-5.3,9.5-4.1,11.3,0.7C1797.9,1373.7,1779,1373.2,1783.2,1363.7z M1837.2,1405.3c-0.5-4.9,2.2-9.3,5-8.9
				c2.8,0.4,6.1,2.1,7.7,7C1851.6,1408.5,1838.1,1414.6,1837.2,1405.3z M1855.5,1384.2c1.3,2.3,9.4,3.3,9.4-2.7
				C1864.7,1369.6,1850.9,1376,1855.5,1384.2z M1822.6,1344.5c1,1.7,7.1,2.5,7-2.1C1829.5,1333.5,1819.2,1338.4,1822.6,1344.5z
				 M1831.7,1380.9c2.1,4.8,8.1,1.5,8.5-3.6C1840.8,1369,1828.4,1373.6,1831.7,1380.9z M1794.7,1343c0.8,4.8,4.6,8.3,7.2,7.3
				c2.6-1.1,5.4-3.7,5.6-8.8C1807.7,1336,1793.1,1333.8,1794.7,1343L1794.7,1343z M1718,1221.6c1.3,2.3,9.4,3.3,9.4-2.7
				C1727.2,1207,1713.4,1213.5,1718,1221.6z M1723.4,1172.1c4-5.2,11.4-2.4,11.7,1.8c0.3,4.2-4.1,9.6-6.7,10
				C1721.5,1184.9,1718.7,1178.2,1723.4,1172.1z M1688.6,1213.9c-1.1-6.4,6-10,9.3-7.3c3.3,2.7,4.2,9.5,2.7,11.7
				C1696.6,1223.9,1689.8,1221.5,1688.6,1213.9z M1677.7,1187.3c0.6-2.5,8.2-5.7,9.7,0.1C1690.4,1198.9,1675.4,1196.3,1677.7,1187.3
				z M1691.2,1172.7c2.4-5.3,9.5-4.1,11.3,0.7C1705.9,1182.7,1687,1182.2,1691.2,1172.7z M1737.9,1200.3c-0.5-4.9,2.2-9.3,5-8.9
				c2.8,0.4,6.1,2.1,7.7,7C1752.3,1203.6,1738.8,1209.6,1737.9,1200.3z"/>
			<path class="st11" d="M1448.8,1492.6c-1.5,0.7-2.5,1.9-3,3.3c-0.5,1.4-0.5,3,0.2,4.5l0,0.1c0.7,1.4,1.9,2.5,3.3,3
				c1.4,0.5,3,0.5,4.5-0.2l0.6-0.3c3.1-1.4,6.4-2.6,9.6-3.5c3.1-0.8,6.2-1.2,9.3-1.1c2.4,0.1,4.8,0.6,7.1,1.5c2.1,0.9,4.2,2.2,6,3.9
				c1.2,1.1,2.7,1.6,4.2,1.6c1.5,0,3-0.6,4.1-1.8l0,0c1.1-1.2,1.6-2.7,1.6-4.2c0-1.5-0.7-3-1.8-4.1c-3-2.8-6.1-4.8-9.4-6.2
				c-3.6-1.5-7.3-2.3-11.2-2.4c-3.9-0.2-7.9,0.3-11.8,1.2C1457.5,1489,1453,1490.6,1448.8,1492.6L1448.8,1492.6z M1565.9,1305.5
				c-1.7-0.6-3.6-0.5-5.4,0.3c-4.7,2.3-9.3,5-13.5,8.2c-3.6,2.8-6.8,5.9-9.5,9.5c-2.6,3.5-4.6,7.4-5.9,11.6
				c-1.1,3.9-1.6,8.2-1.3,12.8l0,0.1c0.2,1.9,1.1,3.6,2.4,4.8c1.4,1.2,3.2,1.8,5.1,1.7l0.1,0c1.9-0.2,3.6-1.1,4.8-2.4
				c1.2-1.4,1.8-3.2,1.7-5.1c-0.2-2.8,0.1-5.4,0.8-7.9c0.8-2.6,2-5,3.6-7.1c2-2.7,4.5-5.1,7.4-7.2c3.1-2.3,6.7-4.4,10.4-6.2
				c1.8-0.8,3-2.3,3.6-4c0.6-1.7,0.5-3.6-0.3-5.4C1569.1,1307.3,1567.6,1306.1,1565.9,1305.5L1565.9,1305.5z M1770,1134.9
				c0.7,1.7,2,3.1,3.7,3.9c2.3,1,4.1,2.4,5.6,4.1l0,0c1.5,1.8,2.6,3.9,3.4,6.2c1,3.1,1.4,6.7,1.4,10.3c0,3.9-0.6,8-1.5,12
				c-0.4,1.9,0,3.8,0.9,5.3c1,1.5,2.5,2.7,4.4,3.1c1.9,0.4,3.8,0,5.3-0.9c1.5-1,2.7-2.5,3.1-4.4c1.2-5.2,1.8-10.6,1.8-16
				c-0.1-4.7-0.7-9.3-2-13.6c-1.4-4.3-3.5-8.3-6.4-11.6c-2.7-3-6.1-5.6-10.4-7.4l0,0c-1.8-0.8-3.7-0.8-5.4-0.1
				c-1.7,0.7-3.1,2-3.9,3.7S1769.3,1133.2,1770,1134.9L1770,1134.9z M1893.8,1312.9c-1.3,1.3-2,3.1-2,5c0,5.3,0.9,10.1,2.5,14.4
				c1.6,4.6,4,8.6,6.9,12c1.7,1.9,3.5,3.7,5.4,5.1c2,1.5,4.1,2.8,6.3,3.8c2.2,1,4.5,1.8,6.8,2.3c2.3,0.5,4.6,0.8,6.9,0.7
				c3.3,0,6.5-0.6,9.5-1.7c2.9-1.1,5.7-2.7,8.1-4.8c1.5-1.3,2.3-3,2.4-4.8c0.1-1.8-0.4-3.7-1.7-5.1c-1.3-1.5-3-2.3-4.8-2.4
				c-1.8-0.1-3.7,0.4-5.1,1.7c-1.2,1-2.5,1.8-4,2.3c-1.5,0.5-3,0.8-4.6,0.8c-1.2,0-2.5-0.1-3.9-0.4c-1.3-0.3-2.5-0.7-3.7-1.3
				c-1.3-0.6-2.6-1.4-3.8-2.3c-1.1-0.9-2.2-1.9-3.2-3c-1.8-2.2-3.4-4.8-4.4-7.9c-0.9-2.8-1.5-5.9-1.5-9.4c0-2-0.8-3.7-2.1-5
				c-1.3-1.3-3.1-2-5-2C1896.8,1310.8,1895,1311.6,1893.8,1312.9L1893.8,1312.9z M1711.6,1447.9c0.1,1.8,0.9,3.6,2.3,4.9
				c2.9,2.6,6.2,4.7,9.7,6.2c3.8,1.7,7.9,2.8,12.1,3.5c4.3,0.6,8.7,0.7,13,0.4c4.5-0.4,8.9-1.2,12.9-2.5c1.8-0.6,3.3-1.9,4.1-3.5
				c0.8-1.6,1-3.5,0.5-5.4c-0.6-1.8-1.9-3.3-3.5-4.1c-1.6-0.8-3.5-1-5.4-0.5c-3,1-6.3,1.6-9.6,1.9c-3.2,0.3-6.5,0.2-9.8-0.3
				c-2.8-0.4-5.5-1.1-8-2.2c-2.4-1-4.6-2.4-6.5-4.1c-1.5-1.3-3.3-1.9-5.1-1.8c-1.8,0.1-3.6,0.9-4.9,2.3
				C1712.1,1444.2,1711.5,1446.1,1711.6,1447.9L1711.6,1447.9z"/>
			<path class="st11" d="M1433.7,1401.3c0.1,0.1,24,28.6,41.6,46c7.3,7.2,13.5,13.2,18.5,17.9c-26.5-4.7-48.3-14.8-64.9-30.3
				c-17.8-16.7-29.7-39.8-35-69.2c35.6,9,60.1,18.7,76.5,33c15.6,13.5,24.1,31.6,28.1,57.6c-5.2-4.2-9.8-7.4-15.1-12.4
				C1468.7,1429.8,1449.7,1412.7,1433.7,1401.3L1433.7,1401.3z M1514.1,1463.8c12.8-21.8,25.4-50.2,29.6-69.3
				c-7.2,15.3-22.4,42.9-34.3,59.6c0-19.9,4.5-42.2,16.6-60.2c8.9-13.3,22-24.3,40.5-30.4c-5.7,11.5-7.4,23.1-9.2,34.8
				C1553.7,1420.8,1550.2,1443.6,1514.1,1463.8L1514.1,1463.8z"/>
		</g>
	</g>
	<path class="st10" d="M1000.8,2173.5c-10.5,3.8-20.9,8.1-31.3,13c0,6.7,0,13.5,0,20.2c0,6.7,0,13.4,0,20.2c8.5-4,17-7.8,25.5-11.2
		c0,5.8,0,11.7,0,17.5c-8.5,3.4-17,7.3-25.5,11.3c0,9.4,0,18.7,0,28.1c0,9.3,0,18.7,0,28.1c-6.4,3.1-12.8,6.1-19.1,9.1
		c0-22.1,0-44.3,0-66.4c0-22.1,0-44.3,0-66.4c16.8-7.8,33.5-15.6,50.4-21.7C1000.8,2161.3,1000.8,2167.4,1000.8,2173.5
		L1000.8,2173.5z M1707.5,2210.3c-6.3,0.2-12.6,0.4-19,0.5c0-5.5,0-11.1,0-16.6c0-5.5,0-11.1,0-16.6c-4.1-11.8-8.2-23.7-12.2-35.5
		c-4-11.9-8.1-23.8-12.1-35.7c6.4,0,12.8-0.1,19.3-0.2c2.3,8.9,4.7,17.9,7,26.8c2.3,8.9,4.8,17.8,7.2,26.7c2.2-9,4.4-18,6.6-27
		c2.2-9,4.4-18,6.7-26.9c6.4-0.1,12.9-0.2,19.3-0.3c-3.8,11.8-7.6,23.7-11.5,35.5c-3.8,11.8-7.6,23.7-11.5,35.6c0,5.6,0,11.2,0,16.8
		C1707.5,2199.1,1707.5,2204.7,1707.5,2210.3L1707.5,2210.3z M1662.9,2106.5c0,4.9,0,9.8,0,14.7c-6.2,0-12.2,0.1-18.3,0.1
		c0,15.1,0,30.2,0,45.2s0,30.2,0,45.2c-6.3,0.1-12.6,0.2-19,0.3c0-15.1,0-30.2,0-45.3c0-15.1,0-30.2,0-45.3c-6.1,0-12.1,0-18.1,0
		c0-4.9,0-9.8,0-14.7C1626,2106.7,1644.4,2106.6,1662.9,2106.5L1662.9,2106.5z M1581.8,2193.4c0-7.5,0-15.1,0-22.7
		c0-1.8-0.3-3-1-3.6c-0.6-0.6-1.9-0.9-3.6-0.9c-4.4,0-8.9,0.1-13.3,0.1c-11.3,0.1-17-5.5-17-16.8c0-8.7,0-17.4,0-26.2
		c0-11.2,5.9-16.7,17.8-16.7c6,0,12.1,0,18.2,0c11.9,0,17.8,5.5,17.8,16.6c0,4.9,0,9.8,0,14.7c-6.4,0-12.8,0-19.1,0.1
		c0-4,0-8.1,0-12.1c0-1.8-0.3-3-1-3.6c-0.6-0.6-1.9-0.9-3.6-0.9c-2.1,0-4.2,0-6.3,0c-1.9,0-3.1,0.3-3.7,0.9c-0.7,0.7-1,1.8-1,3.6
		c0,7.1,0,14.3,0,21.4c0,1.8,0.3,3,1,3.6c0.6,0.6,1.9,0.9,3.7,0.9c4.3,0,8.7,0,13-0.1c11.5-0.1,17.3,5.4,17.3,16.3
		c0,9.2,0,18.4,0,27.6c0,11-6,16.6-17.9,16.8c-5.9,0.1-11.9,0.2-17.8,0.3c-12,0.2-18-5.3-18-16.4c0-4.9,0-9.8,0-14.7
		c6.3-0.1,12.6-0.1,19-0.2c0,4,0,8,0,11.9c0,1.8,0.3,3,1,3.6c0.6,0.6,2,0.9,3.8,0.9c2,0,4.1-0.1,6.2-0.1c1.7,0,2.9-0.4,3.6-1
		C1581.5,2196.3,1581.8,2195.2,1581.8,2193.4L1581.8,2193.4z M1520.5,2213.7c-1.3-7.4-2.7-14.8-4-22.2c-7.6,0.1-15.2,0.2-22.8,0.3
		c-1.2,7.5-2.4,15-3.6,22.4c-6.3,0.1-12.6,0.3-19,0.5c3.4-18.1,6.9-36.2,10.4-54.3c3.4-18,7-36,10.5-54c8.5,0,17,0,25.6,0
		c3.6,17.9,7.3,35.7,10.9,53.5c3.6,17.8,7.3,35.5,11,53.3C1533.2,2213.4,1526.8,2213.5,1520.5,2213.7L1520.5,2213.7z M1496.2,2177
		c5.8-0.1,11.7-0.1,17.6-0.2c-1.6-8.5-3.1-17.1-4.6-25.6c-1.5-8.5-3-17.1-4.4-25.7c-1.5,8.6-3,17.2-4.4,25.8
		C1499.1,2159.8,1497.6,2168.4,1496.2,2177L1496.2,2177z M1469,2106.5c0,5.1,0,10.1,0,15.1c-6.1,0-12.2,0.1-18.2,0.1
		c0,15.6,0,31.2,0,46.8c0,15.6,0,31.2,0,46.8c-6.3,0.2-12.6,0.4-19,0.6c0-15.7,0-31.4,0-47.1c0-15.7,0-31.4,0-47.1
		c-6.1,0.1-12.2,0.1-18.2,0.2c0-5.1,0-10.2,0-15.4C1432.1,2106.6,1450.5,2106.5,1469,2106.5L1469,2106.5z M1363.2,2219.2
		c-12.3,0.7-24.7,1.4-36.9,2.3c-12,0.9-18-4.5-18-16.4c0-5.4,0-10.9,0-16.3c0-4.6,0.9-8.3,2.5-11.1c1.6-2.8,4.7-5.8,9-8.9
		c1.4-1.2,2.8-2.3,4.3-3.5c-2.7-3.3-4.6-6-5.9-7.9c-3.6-5.2-5.5-10.2-5.5-14.9c0-5.3,0-10.6,0-15.9c0-11.9,6-18,18-18.4
		c5.6-0.2,11.3-0.4,17-0.5c11.7-0.2,17.6,5.6,17.6,17.3c0,5,0,10,0,15.1c0,6.2-1.1,11-3.4,14.5c-2.3,3.9-7,8.3-14.1,13.3
		c6.2,7.6,12.3,15.2,18.6,22.8c0-4.4,0-8.9,0-13.3c5.1-0.2,10.1-0.4,15.2-0.7c0,8,0,16.1,0,24.1c0,2.5-0.3,4.8-1,6.9
		c4.5,5.3,9,10.7,13.6,16.1c-6.6,0.3-13,0.6-19.5,1c-1.9-2.1-3.7-4.2-5.6-6.4C1367.2,2218.8,1365.3,2219.1,1363.2,2219.2
		L1363.2,2219.2z M1331.4,2127.8c0,5,0,9.9,0,14.9c0,3.6,2,7.7,5.9,12.5c4-3,6.6-5.4,7.9-7.2c1.2-1.8,1.9-4.1,1.9-7.1
		c0-4.5,0-9,0-13.6c0-1.9-0.3-3.2-0.9-3.8c-0.6-0.6-1.8-0.9-3.7-0.9c-2.2,0.1-4.4,0.2-6.5,0.3c-1.8,0.1-3,0.4-3.7,1.1
		C1331.7,2124.6,1331.4,2125.9,1331.4,2127.8L1331.4,2127.8z M1331.2,2206.1c8.7-0.5,17.5-1,26.2-1.5c-7.6-9-15.3-18-22.9-27
		c-3.9,2.8-6.2,5-6.9,6.3c-0.8,1.4-1.1,3.3-1.1,5.7c0,4,0,8,0,12c0,1.9,0.3,3.1,1,3.8C1328.1,2205.9,1329.3,2206.2,1331.2,2206.1
		L1331.2,2206.1z M1248.9,2111.6c6.3-0.3,12.6-0.7,19-1c0,19.4,0,38.7,0,58.1c0,19.4,0,38.7,0,58.1c-6.4,0.7-12.7,1.4-19,2.2
		c0-8.3,0-16.7,0-25c0-8.3,0-16.7,0-25c-7.2,0.7-14.3,1.4-21.4,2.1c0,8.4,0,16.8,0,25.2c0,8.4,0,16.8,0,25.2
		c-6.3,0.9-12.6,1.8-19,2.8c0-19.9,0-39.8,0-59.7c0-19.9,0-39.8,0-59.8c6.3-0.5,12.6-1,19-1.5c0,8.6,0,17.1,0,25.7
		c0,8.5,0,17.1,0,25.6c7.1-0.7,14.2-1.3,21.4-1.9c0-8.5,0-17,0-25.5C1248.9,2128.6,1248.9,2120.1,1248.9,2111.6L1248.9,2111.6z
		 M1175.8,2217c0-8.6,0-17.3,0-25.9c0-2.1-0.3-3.3-1-4c-0.6-0.6-1.9-0.8-3.6-0.5c-4.4,0.7-8.9,1.4-13.3,2.1
		c-11.4,1.8-17-3.7-17-16.8c0-10.1,0-20.2,0-30.3c0-12.9,5.9-20.4,17.8-21.7c6-0.7,12.1-1.4,18.2-2c11.9-1.3,17.8,4.3,17.8,16.9
		c0,5.6,0,11.2,0,16.8c-6.4,0.8-12.8,1.6-19.1,2.4c0-4.6,0-9.2,0-13.8c0-2-0.3-3.4-1-4c-0.6-0.6-1.9-0.8-3.6-0.6
		c-2.1,0.3-4.2,0.5-6.3,0.8c-1.9,0.2-3.1,0.8-3.7,1.5c-0.7,0.8-1,2.2-1,4.3c0,8.2,0,16.4,0,24.6c0,2.1,0.3,3.4,1,4
		c0.7,0.6,1.9,0.8,3.7,0.5c4.3-0.6,8.7-1.3,13-1.9c11.5-1.5,17.3,4,17.3,16.5c0,10.5,0,21,0,31.5c0,12.6-6,19.6-17.9,21.6
		c-6,1-11.9,2.3-17.9,3.4c-11.9,2.3-17.9-3-17.9-15.9c0-5.7,0-11.4,0-17c6.3-1.2,12.6-2.2,19-3.3c0,4.6,0,9.2,0,13.8
		c0,2.1,0.3,3.4,1,4c0.6,0.6,1.9,0.7,3.7,0.4c2.1-0.4,4.2-0.7,6.3-1.1c1.7-0.3,2.9-0.9,3.6-1.7
		C1175.4,2220.5,1175.8,2219,1175.8,2217L1175.8,2217z M1100.3,2237.3c10.5-2.5,21.1-4.9,31.7-7.1c0,5.8,0,11.5,0,17.3
		c-16.9,3.9-33.8,8-50.8,12.1c0-21.2,0-42.3,0-63.5c0-21.2,0-42.3,0-63.5c16.5-3.4,32.9-6.3,49.4-8.9c0,5.8,0,11.5,0,17.3
		c-10.1,1.7-20.3,3.4-30.3,5.2c0,5.8,0,11.7,0,17.5c0,5.8,0,11.7,0,17.5c8.5-1.7,17-3.4,25.6-5c0,5.9,0,11.7,0,17.5
		c-8.6,1.7-17.1,3.5-25.6,5.3c0,6.4,0,12.8,0,19.1C1100.3,2224.6,1100.3,2231,1100.3,2237.3L1100.3,2237.3z M1029.2,2225.1
		c0,8.5,0,16.9,0,25.4c0,8.4,0,16.9,0,25.4c-6.3,2.4-12.6,4.8-19,7.2c0-21.9,0-43.7,0-65.6c0-21.9,0-43.7,0-65.6
		c12.7-4.5,25.4-7.9,38.2-11.5c12-3.3,18,2.1,18,15.5c0,6.3,0,12.7,0,19c0,6.3,0,12.7,0,19c0,11.1-4.1,18.7-12.1,22.9
		c2.9,7.7,5.8,15.3,8.7,22.9c2.9,7.6,5.8,15.2,8.7,22.8c-6.9,2.1-13.6,4.1-20.4,6.2c-2.7-7.6-5.4-15.1-8-22.8
		c-2.6-7.6-5.3-15.3-7.9-22.9C1033.3,2223.6,1031.2,2224.4,1029.2,2225.1L1029.2,2225.1z M1029.2,2163.8c0,7.3,0,14.6,0,21.9
		c0,7.3,0,14.6,0,21.9c4.5-1.5,9-2.8,13.7-4.1c1.8-0.5,3-1.2,3.7-2.2c0.6-0.9,0.9-2.5,0.9-4.7c0-10.8,0-21.6,0-32.3
		c0-2.2-0.3-3.6-0.9-4.1c-0.7-0.6-1.9-0.6-3.7-0.1C1038.3,2161.2,1033.7,2162.5,1029.2,2163.8L1029.2,2163.8z"/>
	<path class="st1" d="M826.8,1345.4l55.2-3.9L852.3,1569l-55.2,3.9l11.8-90l-40.5,2.9l-11.8,90l-55.2,3.9l29.7-227.5l55.2-3.9
		l-12.2,93.2l40.5-2.9L826.8,1345.4L826.8,1345.4z M1197.7,1319l-5.8,44.3l-39.8,2.8l-23.9,183.2l-56.2,4l23.9-183.2l-39.5,2.8
		l5.8-44.3L1197.7,1319L1197.7,1319z M954,1336.4l47.5-3.4c31.5-2.2,45.3,11.3,41.5,40.6l-18.2,139.6c-3.8,29.3-21.5,45.1-52.9,47.3
		l-47.5,3.4c-31.5,2.2-45.3-11.3-41.5-40.6l18.2-139.6C904.9,1354.4,922.5,1338.6,954,1336.4L954,1336.4z M969.6,1509l16.1-123.3
		c0.7-5.2-1.7-7.6-7-7.2l-13.5,1c-5.4,0.4-8.4,3.2-9,8.4L940,1511.1c-0.7,5.2,1.7,7.6,7,7.2l13.5-1
		C965.9,1517,968.9,1514.2,969.6,1509L969.6,1509z"/>
</g>
</svg>
